<?xml version="1.0" encoding="UTF-8"?><svg xmlns="http://www.w3.org/2000/svg" width="1037.4" height="1183.68" viewBox="0 0 1037.4 1183.68"><defs><style>.cls-1{fill:#f4e6d4;}.cls-1,.cls-2,.cls-3,.cls-4,.cls-5,.cls-6,.cls-7,.cls-8,.cls-9,.cls-10,.cls-11,.cls-12,.cls-13,.cls-14,.cls-15,.cls-16,.cls-17,.cls-18,.cls-19,.cls-20,.cls-21,.cls-22,.cls-23,.cls-24,.cls-25,.cls-26,.cls-27,.cls-28,.cls-29,.cls-30,.cls-31,.cls-32,.cls-33,.cls-34,.cls-35,.cls-36,.cls-37,.cls-38{stroke-width:0px;}.cls-39{stroke:#c97967;}.cls-39,.cls-40,.cls-41,.cls-42,.cls-43,.cls-44,.cls-45,.cls-46,.cls-47,.cls-48,.cls-49,.cls-50{stroke-linecap:round;}.cls-39,.cls-51,.cls-52,.cls-53,.cls-54{stroke-miterlimit:10;}.cls-39,.cls-42{fill:none;}.cls-39,.cls-49{stroke-width:2px;}.cls-2{fill:#1e1e1e;}.cls-3{fill:#6881a0;}.cls-4{fill:#000;}.cls-40{fill:#f7f8f9;stroke:#edeff2;}.cls-40,.cls-41,.cls-42,.cls-43,.cls-44,.cls-45,.cls-46,.cls-47,.cls-48,.cls-49,.cls-50{stroke-linejoin:round;}.cls-5{fill:#3c99d6;}.cls-6{fill:#f7eddc;}.cls-7{fill:#f4a876;}.cls-41{fill:#272828;stroke:#666;}.cls-8{fill:#a259ff;}.cls-51{stroke:#e2a944;}.cls-51,.cls-52{fill:#f7d472;}.cls-42,.cls-45,.cls-48{stroke:#334459;}.cls-42,.cls-50{stroke-width:.25px;}.cls-9{fill:#1abcfe;}.cls-10{fill:#f24e1e;}.cls-11{fill:#bf0000;}.cls-12{fill:#300;}.cls-13{fill:#0acf83;}.cls-14{fill:#ff7262;}.cls-15{fill:#00005b;}.cls-43{stroke:#e0b9a4;}.cls-43,.cls-36{fill:#f9e0d2;}.cls-16{fill:#e0b9a4;}.cls-44{fill:#c1d1e5;stroke:#8a9eb5;}.cls-17{fill:#e2c574;}.cls-18{fill:#9ba0a3;}.cls-19{fill:#ff9a00;}.cls-20{fill:#99f;}.cls-45{fill:#b3bfce;stroke-width:.75px;}.cls-21{fill:#2389cb;}.cls-22{fill:#d36a74;}.cls-52{stroke:#f2c57e;}.cls-46{fill:#52657c;stroke:#2a3c51;}.cls-23{fill:#efa3a7;}.cls-24{fill:#334459;}.cls-25{fill:#264de4;}.cls-47,.cls-29,.cls-50{fill:#c5c7c9;}.cls-47,.cls-50{stroke:#9ba0a3;}.cls-26{fill:#af8272;}.cls-27{fill:#e5ceae;}.cls-28{fill:#e4a126;}.cls-48{fill:#eff1f4;}.cls-30{fill:#0878ba;}.cls-31{fill:#e2c7a3;}.cls-49,.cls-35,.cls-54{fill:#fff;}.cls-49,.cls-54{stroke:#fff;}.cls-53{fill:#e44d26;stroke:#e44d26;}.cls-32{fill:#f78d52;}.cls-33{fill:#8a9eb5;}.cls-34{fill:#e8e9ea;}.cls-37{fill:#e5ad9c;}.cls-38{fill:#2a3c51;}</style></defs><g id="Layer_15"><path class="cls-7" d="M202.94,969.93c-12.76-38.59-41.86-69.34-71.54-97.1-29.68-27.76-61.36-54.61-81.91-89.67-20.55-35.06-27.93-81.15-6.8-115.87,10.73-17.63,27.59-30.61,40.23-46.92,29.31-37.82,33.13-89.42,29.32-137.11s-14.04-95.48-8.22-142.98c4.35-35.49,17.79-69.83,38.69-98.85,10-13.88,22.14-26.89,37.77-33.82,27.04-11.98,58.33-3.66,87.82-5.89,48.26-3.64,89.55-35.33,124.41-68.91,34.85-33.58,67.63-71.2,111.24-92.2,29.02-13.97,61.92-19.78,93.97-16.6,10.68,1.06,21.5,3.19,30.72,8.67,27.49,16.34,30.68,53.95,44.35,82.85,15.9,33.6,47.99,56.99,81.93,72.15s70.5,23.42,105.61,35.64c13.43,4.67,26.91,10.08,37.88,19.13,24.85,20.52,32.05,55.48,33.14,87.69,2.96,87.14-25.94,179.76,11.42,258.54,9.29,19.59,22.29,37.14,33.49,55.71,24.26,40.22,40.28,87.58,33.19,134.01-7.09,46.43-41.68,90.45-88.02,98.1-18.81,3.1-38.15.29-57.07,2.59-60.38,7.31-102.06,62.86-131.95,115.83-29.89,52.97-59.45,112.14-114.56,137.87-51.46,24.03-113.65,11.79-163.31-15.76-12.65-7.02-24.93-15.05-38.72-19.46-41.16-13.2-89.46,7.5-127.77-12.54-19.69-10.3-32.79-29.58-45.07-48.1-19.97-30.13-40.1-60.55-53.33-94.19"/><path class="cls-32" d="M342.72,950.98c-25.99-7.32-54-16.02-69.71-37.99-30.46-42.62,3.86-103.33-10.22-153.79-7.96-28.51-30.57-50.42-53.93-68.61-23.36-18.18-48.83-34.58-66.67-58.2-17.84-23.62-26.5-57.24-11.91-83,12.67-22.38,38.6-32.84,59.69-47.55,22.37-15.61,40.41-37.36,51.61-62.23,18.72-41.58,18.02-89.7,35.56-131.79,7.27-17.44,18.65-34.5,36.05-41.85,20.88-8.82,45.1-1.59,65.06,9.15,24.34,13.1,45.71,31.16,69.81,44.7,24.1,13.54,52.75,22.47,79.37,15.03,29.56-8.26,50.57-35.15,61.97-63.64,5.31-13.26,9.29-27.64,19.05-38.07,6.55-7,15.23-11.64,24.11-15.26,47.46-19.35,105.23-10.56,144.78,22.04,8.43,6.95,16.29,15.25,19.71,25.62,4.35,13.21.88,27.57-2.57,41.04-15.36,60.04-28.42,129.18,7.66,179.57,11.6,16.2,27.36,28.83,42.1,42.23,32.75,29.77,62.1,66.06,71.52,109.3,9.42,43.24-5.99,94.12-44.78,115.43-37.99,20.87-87.21,9.54-125.82,29.26-36.38,18.59-54.79,60.83-59.7,101.39-4.91,40.55.81,81.66-1.45,122.45-.79,14.3-3.17,29.82-13.63,39.61-9.35,8.76-23.18,10.88-35.97,10.19-26.42-1.41-51.16-12.76-75.16-23.91-71.95-33.44-139.86-60.45-216.56-81.1Z"/><path class="cls-51" d="M231.61,224.72s-.5,35.8,19.94,54.04c0,0-20.96,22.96-22.36,57.49,0,0-4.23-33.85-19.56-58.13,0,0,15.81-9.34,21.97-53.4Z"/><path class="cls-51" d="M198.33,878.83s-.5,35.8,19.94,54.04c0,0-20.96,22.96-22.36,57.49,0,0-4.23-33.85-19.56-58.13,0,0,15.81-9.34,21.97-53.4Z"/><path class="cls-51" d="M884.98,517.56s-.5,35.8,19.94,54.04c0,0-20.96,22.96-22.36,57.49,0,0-4.23-33.85-19.56-58.13,0,0,15.81-9.34,21.97-53.4Z"/><polygon class="cls-52" points="185.58 346.29 188.3 354.14 195.54 354.14 190.31 359.24 192.66 366.35 186.42 362.93 179.98 366.89 182.26 359.71 176.36 354.88 183.4 354.28 185.58 346.29"/><polygon class="cls-52" points="161.62 852 164.34 859.85 171.59 859.85 166.35 864.95 168.7 872.06 162.46 868.64 156.02 872.6 158.3 865.42 152.4 860.59 159.44 859.98 161.62 852"/><polygon class="cls-52" points="682.9 814.87 685.62 822.71 692.87 822.71 687.63 827.81 689.98 834.93 683.74 831.5 677.3 835.46 679.58 828.28 673.68 823.45 680.72 822.85 682.9 814.87"/><polygon class="cls-52" points="791.2 447.37 793.91 455.22 801.16 455.22 795.93 460.32 798.27 467.43 792.04 464.01 785.59 467.97 787.88 460.79 781.97 455.96 789.02 455.35 791.2 447.37"/><polygon class="cls-52" points="668.39 164.88 671.11 172.73 678.35 172.73 673.12 177.83 675.47 184.94 669.23 181.52 662.79 185.48 665.07 178.3 659.17 173.47 666.21 172.87 668.39 164.88"/><polygon class="cls-52" points="52.67 655.37 55.39 663.22 62.63 663.22 57.4 668.32 59.75 675.43 53.51 672.01 47.07 675.97 49.35 668.79 43.44 663.96 50.49 663.35 52.67 655.37"/><polygon class="cls-52" points="958.62 852 961.34 859.85 968.59 859.85 963.35 864.95 965.7 872.06 959.46 868.64 953.02 872.6 955.3 865.42 949.4 860.59 956.44 859.98 958.62 852"/></g><g id="Layer_13"><path class="cls-43" d="M767.65,544.18l55.93,28.83s6.04,3.11,8.29-2.93l9.49,3.73s6.21.06,3.63-5.81l-6.04-5.01,15.19,5.7s8.46,2.07,7.08-6.56l-29-14.5,27.27,4.66s8.42-1.9,1.88-8.11l-37.09-11.57,15.71-2.24s6.91-1.55,2.93-7.42-45.57-1.73-45.57-1.73l-1.73.86-10.88-4.32-17.09,26.41Z"/><path class="cls-43" d="M276.71,521.73l-55.93,28.83s-6.04,3.11-8.29-2.93l-9.49,3.73s-6.21.06-3.63-5.81l6.04-5.01-15.19,5.7s-8.46,2.07-7.08-6.56l29-14.5-27.27,4.66s-8.42-1.9-1.88-8.11l37.09-11.57-15.71-2.24s-6.91-1.55-2.93-7.42c3.97-5.87,45.57-1.73,45.57-1.73l1.73.86,10.88-4.32,17.09,26.41Z"/><path class="cls-43" d="M605.9,1014.76l38.84,34.44s-2.85,17.61-2.85,31.85c0,0-5.96,17.35-.52,23.3,5.44,5.96,12.43-5.7,12.43-5.7l35.99-55.93s2.85-8.8-3.11-12.95c-5.96-4.14-6.47-6.21-17.35-8.29l-5.18-1.29-31.85-34.18-26.41,28.74Z"/><path class="cls-43" d="M493.78,1051.53v39.62s12.69,10.1,12.69,10.1c0,0,10.62,10.62,2.85,19.94-7.77,9.32-55.15,42.47-55.15,42.47,0,0-9.58,1.81-8.8-6.73.78-8.54,6.73-13.72,6.73-13.72l6.47-14.76-8.29-81.05,43.5,4.14Z"/><path class="cls-40" d="M655.03,1010.4s-6.65,19.54-21.89,28.51l11.61,10.29s21.48,4.73,23.9-10.47c2.42-15.19,2.65-16.85,2.65-16.85l-7.13-1.69-9.13-9.8Z"/><path class="cls-40" d="M490.81,1077.89s-18.28,16.74-38.98,17.48l5.61,17.42s18.87,17.19,30.31,2.61c11.44-14.58,12.66-16.19,12.66-16.19l-6.19-5.83-3.41-15.49Z"/><path class="cls-48" d="M665.83,1019.79s14.63-.65,22.4,9.06l8.29,5.7s-19.55,52.44-49.59,74.7l-5.92-3.2s-7.16-1.59-6.77-9.23,7.2-33.66,6.77-45.83c0,0,1.9-5.18,8.38-2.46,0,0,21.75-2.98,16.44-28.74Z"/><path class="cls-45" d="M688.23,1028.85l8.29,5.7s-18.3,50.88-49.59,74.7l-5.92-3.2s33.71-29.73,47.22-77.2Z"/><path class="cls-42" d="M649.39,1048.53s-6.96-3.15-8.38,2.46c-1.42,5.61,1.44,7.22-4.98,34.45h2.78s10.4-35.14,10.57-36.91Z"/><path class="cls-24" d="M641.34,1085.77c.97,0,.97-1.5,0-1.5s-.97,1.5,0,1.5h0Z"/><path class="cls-24" d="M645.29,1074.05c.97,0,.97-1.5,0-1.5s-.97,1.5,0,1.5h0Z"/><path class="cls-24" d="M648.59,1064.02c.97,0,.97-1.5,0-1.5s-.97,1.5,0,1.5h0Z"/><path class="cls-24" d="M651.89,1052.89c.97,0,.97-1.5,0-1.5s-.97,1.5,0,1.5h0Z"/><path class="cls-24" d="M641.21,1084.73c-1.51-.03-3.02-.05-4.53-.08-.48,0-.48.74,0,.75,1.51.03,3.02.05,4.53.08.48,0,.48-.74,0-.75h0Z"/><path class="cls-24" d="M641.81,1084.78c-.38-1.19-.98-2.27-1.65-3.31-.72-1.13-1.46-2.24-2.19-3.36-.26-.4-.91-.03-.65.38.71,1.09,1.43,2.17,2.13,3.27.65,1.02,1.27,2.07,1.63,3.23.15.46.87.26.72-.2h0Z"/><path class="cls-24" d="M645.22,1073.51c-3.34,1.58-5.63,4.62-8.65,6.66-.4.27-.02.92.38.65,3.02-2.04,5.31-5.08,8.65-6.66.44-.21.06-.85-.38-.65h0Z"/><path class="cls-24" d="M645.55,1073.15c-.73-1.27-1.48-2.54-2.43-3.65-.47-.55-.99-1.03-1.54-1.48s-1.12-.9-1.56-1.47c-.3-.38-.82.15-.53.53.42.54.95.97,1.48,1.4.56.45,1.09.92,1.56,1.47.94,1.09,1.67,2.34,2.39,3.59.24.42.89.04.65-.38h0Z"/><path class="cls-24" d="M648.61,1063.22c-3.17,3.18-7.47,5.01-10.37,8.48-.31.37.22.9.53.53,2.9-3.47,7.2-5.3,10.37-8.48.34-.34-.19-.87-.53-.53h0Z"/><path class="cls-24" d="M649.01,1063.12c-2.93-.89-5.62-2.43-7.86-4.51-.35-.33-.88.2-.53.53,2.34,2.17,5.14,3.78,8.19,4.71.46.14.66-.58.2-.72h0Z"/><path class="cls-24" d="M640.51,1062.9c1.24-.76,2.48-1.53,3.71-2.3,1.14-.71,2.31-1.39,3.38-2.19,1.97-1.47,3.28-3.46,4.29-5.67.2-.44-.45-.82-.65-.38-1.02,2.22-2.33,4.2-4.34,5.63-2.17,1.54-4.52,2.86-6.78,4.25-.41.25-.03.9.38.65h0Z"/><path class="cls-24" d="M651.46,1052.13c-3.34.98-6.77,1.55-10.25,1.7-.48.02-.48.77,0,.75,3.54-.15,7.05-.73,10.45-1.72.46-.14.27-.86-.2-.72h0Z"/><path class="cls-24" d="M643.86,1053.78c-4.21-1.36-9.88-2.69-13.27,1.14-.67.75-1.18,1.65-1.42,2.63-.16.65-.38,1.81.3,2.26.82.54,1.75-.71,2.32-1.12,1-.72,2.11-1.27,3.24-1.75,2.6-1.1,5.75-2.61,8.6-1.7.46.15.66-.58.2-.72-2.02-.64-4.09-.15-6.03.54s-3.78,1.37-5.49,2.39c-.41.25-.81.51-1.19.81-.29.22-1.09,1.08-1.34.59-.17-.35.11-1.16.23-1.51.16-.48.4-.94.69-1.36,1.25-1.79,3.37-2.66,5.49-2.82,2.56-.19,5.05.56,7.46,1.34.46.15.66-.58.2-.72h0Z"/><path class="cls-24" d="M644.24,1055.1c1.03-1.67,2.35-3.3,4.18-4.12,1.07-.48,2.23-.56,3.39-.49s2.26.2,3.31.58,1.93.99,2.48,1.92c.49.84.79,2.84-.77,2.65-.58-.07-1.11-.42-1.64-.66-.45-.21-.91-.4-1.37-.57-1.02-.38-2.09-.66-3.16-.83-2.34-.38-4.73-.24-6.99.52-.45.15-.26.88.2.72,2.65-.89,5.49-.89,8.19-.18,1.36.36,2.57.97,3.86,1.51.84.35,1.84.42,2.44-.37,1.28-1.7-.39-4.01-1.86-4.89-1.04-.62-2.24-.88-3.42-1.03-1.29-.16-2.65-.25-3.92.08-2.48.63-4.27,2.69-5.56,4.79-.25.41.4.79.65.38h0Z"/><path class="cls-24" d="M643.58,1054.31c-3.18,1.15-6.5,2.36-8.89,4.86-1.03,1.08-1.86,2.36-2.28,3.8s-.27,3.95-2.12,4.42c-.47.12-.27.84.2.72,1.46-.38,2.04-1.82,2.28-3.16.32-1.73.77-3.24,1.9-4.64,2.29-2.81,5.8-4.09,9.1-5.29.45-.16.26-.89-.2-.72h0Z"/><path class="cls-24" d="M644.05,1055.09c.67-.09,1.39-.19,2.05,0,.76.22,1.2.87,1.59,1.52.73,1.22,1.21,2.58,1.59,3.95.35,1.25.67,2.53.89,3.81.24,1.39.26,2.84-.52,4.07-.26.41.39.79.65.38.81-1.27.86-2.74.66-4.19-.23-1.67-.67-3.35-1.16-4.96-.45-1.49-1.05-3.05-2.03-4.27s-2.45-1.22-3.91-1.02c-.48.07-.27.79.2.72h0Z"/><path class="cls-48" d="M490.53,1089.85s14.16,3.74,18.68,15.32l6.21,7.91s-34.28,44.23-69.58,56.55l-4.7-4.82s-6.36-3.65-3.72-10.82,16.89-29.99,20.11-41.74c0,0,3.36-4.38,8.73.15,0,0,21.65,3.63,24.26-22.54Z"/><path class="cls-45" d="M509.22,1105.17l6.21,7.91s-32.62,43.12-69.58,56.55l-4.7-4.82s41.03-18.34,68.06-59.63Z"/><path class="cls-42" d="M466.28,1112.39s-5.71-5.08-8.73-.15-.78,7.32-15.01,31.4l2.65.83s20.39-30.44,21.08-32.08Z"/><path class="cls-24" d="M447.73,1145.58c.97,0,.97-1.5,0-1.5s-.97,1.5,0,1.5h0Z"/><path class="cls-24" d="M454.99,1135.57c.97,0,.97-1.5,0-1.5s-.97,1.5,0,1.5h0Z"/><path class="cls-24" d="M461.13,1126.97c.97,0,.97-1.5,0-1.5s-.97,1.5,0,1.5h0Z"/><path class="cls-24" d="M467.6,1117.33c.97,0,.97-1.5,0-1.5s-.97,1.5,0,1.5h0Z"/><path class="cls-24" d="M447.68,1144.51c-1.43-.47-2.87-.95-4.3-1.42-.46-.15-.66.57-.2.72,1.43.47,2.87.95,4.3,1.42.46.15.66-.57.2-.72h0Z"/><path class="cls-24" d="M448.25,1144.73c0-1.27-.28-2.51-.61-3.73s-.71-2.53-1.07-3.79c-.13-.46-.86-.27-.72.2.35,1.22.7,2.43,1.03,3.65s.61,2.42.62,3.67c0,.48.75.48.75,0h0Z"/><path class="cls-24" d="M454.84,1135c-3.66.52-6.75,2.73-10.24,3.78-.46.14-.26.86.2.72,3.49-1.05,6.58-3.26,10.24-3.78.48-.07.27-.79-.2-.72h0Z"/><path class="cls-24" d="M455.28,1134.73c-.32-1.42-.65-2.83-1.22-4.17-.27-.65-.61-1.25-1-1.84s-.81-1.18-1.07-1.86c-.17-.45-.89-.25-.72.2.49,1.31,1.47,2.36,2.04,3.64.6,1.34.92,2.8,1.25,4.23.11.47.83.27.72-.2h0Z"/><path class="cls-24" d="M461.15,1126.19c-3.97,2.09-8.61,2.57-12.42,5.01-.41.26-.03.91.38.65,3.81-2.44,8.45-2.92,12.42-5.01.43-.22.05-.87-.38-.65h0Z"/><path class="cls-24" d="M461.56,1126.2c-2.53-1.72-4.64-4-6.15-6.66-.24-.42-.89-.04-.65.38,1.58,2.77,3.79,5.14,6.42,6.93.4.27.78-.38.38-.65h0Z"/><path class="cls-24" d="M453.54,1123.46c2.67-.68,5.42-1.23,8.02-2.13,2.36-.82,4.22-2.34,5.87-4.17.32-.36-.21-.89-.53-.53-1.69,1.88-3.58,3.37-6.01,4.14s-5.04,1.34-7.55,1.98c-.47.12-.27.84.2.72h0Z"/><path class="cls-24" d="M467.17,1116.44c-3.48-.06-6.93-.54-10.29-1.43-.47-.12-.67.6-.2.72,3.42.91,6.94,1.4,10.49,1.46.48,0,.48-.74,0-.75h0Z"/><path class="cls-24" d="M459.42,1115.74c-3.65-2.58-8.72-5.54-13.11-2.79-.82.51-1.54,1.2-2.04,2.04-.35.59-.92,1.68-.32,2.28.26.26.61.28.95.19.62-.17,1.19-.52,1.81-.71,1.26-.38,2.56-.56,3.87-.66,2.69-.22,5.86-.65,8.2,1,.4.28.77-.37.38-.65-2.11-1.48-4.78-1.35-7.23-1.19-1.29.08-2.58.18-3.85.41-.7.13-1.39.3-2.07.54-.28.1-.55.24-.83.34-.22.16-.47.17-.74.04.02-.18.07-.35.13-.51.95-2.58,3.94-3.62,6.47-3.39,3,.28,5.59,2.03,7.98,3.72.39.28.77-.37.38-.65h0Z"/><path class="cls-24" d="M459.42,1117.11c1.65-1.44,3.69-2.74,5.96-2.72,1.25.01,2.45.47,3.58.97.99.43,1.96.96,2.72,1.74s1.26,1.79,1.21,2.86c-.02.49-.19,1.12-.64,1.4-.64.4-1.28-.11-1.75-.54-1.49-1.37-3.05-2.57-4.9-3.43-2.02-.94-4.21-1.45-6.44-1.39-.48.01-.48.76,0,.75,2.6-.06,5.13.67,7.38,1.98,1.09.63,2.11,1.39,3.03,2.25.71.66,1.54,1.52,2.6,1.24.89-.23,1.36-1.19,1.45-2.04.11-1.08-.28-2.17-.92-3.03-.7-.94-1.69-1.62-2.73-2.14-1.18-.59-2.46-1.12-3.76-1.3-2.77-.39-5.3,1.13-7.31,2.87-.36.32.17.85.53.53h0Z"/><path class="cls-24" d="M459,1116.18c-3.34.15-6.83.32-9.83,1.95-1.21.65-2.3,1.53-3.13,2.62-1,1.33-1.57,4.02-3.63,3.96-.48-.01-.48.74,0,.75,1.5.04,2.46-1.11,3.11-2.33.82-1.55,1.67-2.84,3.15-3.83,3.04-2.04,6.79-2.22,10.33-2.37.48-.02.48-.77,0-.75h0Z"/><path class="cls-24" d="M459.14,1117.05c.6.1,1.24.2,1.79.48.73.37,1.03,1,1.24,1.75.43,1.55.48,3.17.42,4.76-.09,2.41.03,5.73-2,7.44-.37.31.16.84.53.53,1.07-.9,1.58-2.21,1.83-3.56.29-1.62.37-3.32.4-4.97s-.04-3.58-.72-5.16c-.58-1.38-1.93-1.76-3.29-1.99-.47-.08-.68.64-.2.72h0Z"/><path class="cls-46" d="M513.11,948.22s69.14,72.5,83.25,105.65c0,0,47.25-22.27,61.75-93.22,0,0-112.38-147.08-141.9-139.83l-3.11,127.4Z"/><path class="cls-46" d="M387.27,587.77s-23.82,79.15,19.16,251.39c0,0,1.95,12.73,41.37,58.3,39.42,45.57,38.9-281.73,38.9-281.73l-99.43-27.97Z"/><path class="cls-46" d="M587.17,577.93s47.13,54.9-71.98,252.21c0,0,9.84,215.95,18.13,241.85,0,0-65.25,37.29-109.27,26.41,0,0,6.21-174.52-4.14-239.78,0,0,5.7-148.63,46.61-216.47l13.46-48.16,107.2-16.05Z"/><path class="cls-38" d="M528.19,1054.84c-.78.22-1.28.74-1.79,1.33-.1.12-.21.24-.33.34-.05.05-.11.1-.16.14-.19.16.04-.04.05-.03,0,0-.76.47-.84.51-1.29.67-2.67,1.18-4.01,1.76-.72.31-.94,1.43-.54,2.05.48.75,1.28.87,2.05.54,1.3-.56,2.64-1.08,3.91-1.71.62-.31,1.21-.7,1.71-1.18.21-.2.38-.43.57-.65.1-.11.2-.21.31-.31.13-.13-.23.17-.07.07.15-.09-.35.11-.05.03.76-.21,1.3-1.07,1.05-1.85s-1.04-1.27-1.85-1.05h0Z"/><path class="cls-38" d="M513.84,1062.02c-3.08.79-6.07,1.93-8.91,3.36-.7.35-.96,1.4-.54,2.05.46.72,1.3.92,2.05.54,1.41-.71,2.5-1.19,3.9-1.71s2.84-.97,4.29-1.34c.76-.19,1.29-1.08,1.05-1.85s-1.03-1.26-1.85-1.05h0Z"/><path class="cls-38" d="M497.26,1068.04c-2.12.08-4.25.44-6.26,1.13-1.02.35-2.02.78-2.99,1.27-.83.41-1.63.82-2.54,1.04-.79.19-1.26,1.08-1.05,1.85.22.8,1.06,1.24,1.85,1.05,1.88-.46,3.51-1.6,5.33-2.24s3.72-1.02,5.66-1.09c.81-.03,1.5-.67,1.5-1.5,0-.79-.69-1.53-1.5-1.5h0Z"/><path class="cls-38" d="M477.65,1074.14c-1.92.71-3.85,1.38-5.79,2-1.84.59-3.72,1.25-5.66,1.38-.81.05-1.5.65-1.5,1.5,0,.77.69,1.55,1.5,1.5,2.15-.14,4.2-.77,6.25-1.42s4.02-1.33,6.01-2.07c.76-.28,1.28-1.02,1.05-1.85-.2-.73-1.08-1.33-1.85-1.05h0Z"/><path class="cls-38" d="M458.29,1078.94c-2.29-.13-4.62-.23-6.85.41-1.04.3-2.04.7-3.12.88s-2.16.18-3.23.21c-1.93.04-1.93,3.04,0,3,1.19-.02,2.37-.07,3.55-.24,1.08-.15,2.08-.48,3.11-.81,2.14-.68,4.32-.58,6.54-.45.81.05,1.5-.72,1.5-1.5,0-.85-.69-1.45-1.5-1.5h0Z"/><path class="cls-38" d="M436.15,1080.69c-3.32,0-6.65,0-9.97,0-.78,0-1.54.69-1.5,1.5s.66,1.5,1.5,1.5c3.32,0,6.65,0,9.97,0,.78,0,1.54-.69,1.5-1.5s-.66-1.5-1.5-1.5h0Z"/><path class="cls-38" d="M646.49,949.67c-1.25,2.83-2.29,5.74-3.07,8.74-.2.76.25,1.66,1.05,1.85s1.63-.24,1.85-1.05c.37-1.41.79-2.8,1.26-4.18s1.01-2.71,1.51-3.85c.32-.72.23-1.64-.54-2.05-.65-.34-1.71-.23-2.05.54h0Z"/><path class="cls-38" d="M639.57,965.51c-.14.54-.3,1.08-.48,1.61-.08.23-.17.46-.26.69-.03.08-.18.53-.05.13-.04.13-.11.26-.17.38-.45.99-.99,1.94-1.61,2.83-.45.65-.14,1.69.54,2.05.76.4,1.58.15,2.05-.54,1.32-1.92,2.3-4.1,2.87-6.36.19-.76-.25-1.66-1.05-1.85s-1.64.23-1.85,1.05h0Z"/><path class="cls-38" d="M631.37,979.53c-1.33,2.38-2.66,4.76-3.99,7.14-.38.69-.19,1.67.54,2.05s1.64.19,2.05-.54c1.33-2.38,2.66-4.76,3.99-7.14.38-.69.19-1.67-.54-2.05s-1.64-.19-2.05.54h0Z"/><path class="cls-38" d="M622.82,993.61c-2.18,2.17-4.14,4.54-5.89,7.06-.45.65-.14,1.69.54,2.05.77.4,1.57.15,2.05-.54.41-.6.84-1.18,1.28-1.76.02-.02.18-.24.07-.09-.12.16.11-.14.11-.14.1-.13.21-.26.31-.39.23-.29.47-.58.71-.87.93-1.11,1.92-2.18,2.95-3.2.56-.55.6-1.57,0-2.12s-1.53-.59-2.12,0h0Z"/><path class="cls-38" d="M612.16,1007.42c-1.43,1.59-2.82,3.22-4.16,4.89-.26.32-.44.63-.44,1.06,0,.37.16.81.44,1.06s.66.46,1.06.44c.37-.02.82-.14,1.06-.44,1.34-1.67,2.73-3.3,4.16-4.89.53-.58.62-1.55,0-2.12-.57-.53-1.56-.62-2.12,0h0Z"/><path class="cls-38" d="M601.7,1018.19c-1.58,1.48-3.08,3.06-4.48,4.71-.26.31-.44.64-.44,1.06,0,.37.16.81.44,1.06.56.51,1.58.64,2.12,0,1.4-1.65,2.9-3.23,4.48-4.71.57-.54.58-1.59,0-2.12-.61-.56-1.51-.57-2.12,0h0Z"/><path class="cls-38" d="M591,1030.25c-1.81,1-3.45,2.37-4.72,3.99-.26.33-.44.63-.44,1.06,0,.37.16.81.44,1.06s.66.46,1.06.44c.37-.02.82-.13,1.06-.44.74-.94,1.59-1.79,2.54-2.53l-.3.23c.59-.46,1.22-.87,1.88-1.23s.97-1.38.54-2.05-1.32-.94-2.05-.54h0Z"/><path class="cls-38" d="M590.11,633.05c-1.22-.31-2.42-.68-3.6-1.09-.59-.21-1.18-.43-1.76-.67-.12-.05-.25-.1-.37-.15-.16-.07-.17-.07-.01,0-.08-.04-.16-.07-.25-.11-.29-.13-.57-.25-.86-.38-.71-.33-1.65-.23-2.05.54-.35.66-.22,1.7.54,2.05,2.44,1.12,4.97,2.04,7.57,2.71.76.2,1.66-.25,1.85-1.05s-.23-1.64-1.05-1.85h0Z"/><path class="cls-38" d="M576.16,624.48c-.49-.22-.96-.47-1.42-.74-.24-.15-.48-.3-.71-.46-.1-.07-.21-.15-.31-.22-.06-.04-.11-.08-.17-.13-.21-.15.21.17.07.05-.85-.69-1.62-1.45-2.29-2.31-.22-.28-.72-.44-1.06-.44-.37,0-.81.16-1.06.44s-.46.66-.44,1.06c.02.42.18.73.44,1.06,1.42,1.82,3.33,3.32,5.44,4.27.38.17.74.27,1.16.15.35-.1.73-.36.9-.69.35-.66.23-1.71-.54-2.05h0Z"/><path class="cls-38" d="M402.35,610.77c-2.05,1.63-4.11,3.27-6.16,4.9-.28.22-.44.72-.44,1.06,0,.37.16.81.44,1.06s.66.46,1.06.44c.42-.02.73-.18,1.06-.44l6.16-4.9c.28-.22.44-.72.44-1.06,0-.37-.16-.81-.44-1.06s-.66-.46-1.06-.44c-.42.02-.73.18-1.06.44h0Z"/><path class="cls-38" d="M389.59,618.85c-1.62.61-3.18,1.38-4.63,2.32-.33.21-.58.51-.69.9-.1.36-.05.84.15,1.16.42.66,1.35,1,2.05.54,1.1-.72,2.26-1.34,3.47-1.85l-.36.15c.27-.11.53-.22.8-.32.37-.14.69-.33.9-.69.19-.32.27-.8.15-1.16s-.34-.71-.69-.9-.78-.29-1.16-.15h0Z"/><path class="cls-1" d="M550.55,250.24s26.74-24.15,61.79-12.95c35.05,11.19,48.95-32.92,48.95-32.92,0,0,13.86-20.22,40.27-12.52,26.41,7.7,31.83-44.28,31.83-44.28,0,0,6.18-28.46,21.04-31.91,14.86-3.46,17.54-34.43-4.63-38-22.18-3.57-51.46-20.14-51.46-20.14,0,0-43.32-25.03-61.74-10.94-18.42,14.08-26.88-5.81-26.88-5.81,0,0-21.59-20.2-41.82.19-20.23,20.39-43.31,18.68-43.31,18.68,0,0-35.42-10.71-44.75,5.29-9.33,16-1.39,28.23-14.42,36.13-13.02,7.9-24.46,27.41-19.7,39.13,4.76,11.72,2.43,32.74,2.43,32.74,0,0,4.63,26.85,29.15,42.85,24.52,16,73.26,34.45,73.26,34.45Z"/><path class="cls-31" d="M551.08,250.77c2.92-2.63,6.35-4.78,9.75-6.7,8.01-4.54,16.93-7.64,26.1-8.63,5.74-.62,11.56-.44,17.24.58,5.3.96,10.31,3.06,15.68,3.64,7.69.84,15.31-1.22,21.65-5.64,9.39-6.55,15.86-17.04,19.86-27.61.18-.49.36-.97.53-1.47.08-.23.21-.47.08-.24.66-1.12,1.8-2.22,2.76-3.19,5.11-5.16,11.7-8.8,18.86-10.12,5.41-1,11.01-.6,16.32.77,3.36.87,6.53,1.58,10,.89,6.02-1.19,10.51-5.89,13.63-10.9,6.03-9.66,8.82-21.5,10.36-32.68.07-.52.14-1.05.2-1.57.06-.48,0-.11.04-.26.38-1.81.92-3.59,1.47-5.36,2.24-7.2,5.3-14.71,10.42-20.37,1.32-1.46,2.8-2.79,4.48-3.82s3.29-1.41,5.06-1.98c2.84-.91,5.21-2.81,6.98-5.18,3.99-5.33,5.08-12.73,3.57-19.13-1.7-7.19-7.03-12.7-14.22-14.49-2.4-.6-4.88-.9-7.29-1.47-2.74-.65-5.45-1.42-8.13-2.28-5.42-1.73-10.73-3.78-15.95-6.03-7.04-3.03-13.96-6.38-20.69-10.05-2.37-1.29-4.73-2.6-7.14-3.8-6.69-3.33-13.61-6.26-20.73-8.51-7.78-2.46-16.25-4.38-24.45-3.43-3.56.41-7.1,1.4-10.13,3.36-4.11,2.65-7.91,5.7-13.06,5.76-6.01.06-10.74-4.38-13.42-9.4-.48-.9-.75-1.35-1.55-2-2.17-1.78-4.55-3.32-7.05-4.61-8.3-4.26-17.91-5.17-26.39-.82-5.96,3.05-10.09,8.39-15.34,12.4-4.63,3.54-9.75,6.46-15.18,8.57-6.23,2.42-13.03,3.99-19.74,3.92-.18,0-1.31-.1-.86,0-.37-.08-.75-.21-1.11-.31-2.26-.62-4.56-1.13-6.86-1.58-7.41-1.44-15.17-2.26-22.68-1.13-3.58.54-7.2,1.61-10.22,3.67-3.76,2.57-5.86,6.54-7.46,10.71-1.83,4.79-2.43,9.81-3.07,14.85-.56,4.41-1.4,8.91-4.55,12.27-1.79,1.91-4.08,3.08-6.17,4.6s-4.13,3.3-5.96,5.2c-3.73,3.86-6.9,8.33-9.24,13.17-2.09,4.32-3.65,9.1-3.6,13.95.05,4.58,2.28,8.71,3.07,13.17,1.46,8.23,1.09,16.61.51,24.9-.06.83.12,1.55.32,2.36.57,2.38,1.3,4.71,2.14,7.01,2.95,8.05,7.27,15.61,12.82,22.16,6.87,8.1,15.59,13.75,24.81,18.83,16.94,9.32,34.81,17.01,52.73,24.24,3.35,1.35,6.71,2.69,10.09,3.97.9.34,1.29-1.11.4-1.45-11.95-4.53-23.76-9.5-35.41-14.75-9.4-4.24-18.73-8.69-27.74-13.69s-17.75-10.83-24.48-19.01c-5.35-6.5-9.49-14.04-12.23-21.99-.71-2.05-1.33-4.13-1.81-6.25-.08-.34-.2-.71-.22-1.06.03.42.05-.02.06-.12.05-.4.08-.81.11-1.21.73-8.56.83-17.48-.96-25.91-.47-2.23-1.28-4.29-1.98-6.44s-.84-4.48-.65-6.74c.43-5.19,2.55-10.21,5.18-14.65,2.77-4.7,6.31-8.99,10.47-12.53,3.68-3.13,8.24-5.04,10.82-9.32,2.17-3.61,2.64-7.88,3.14-11.98.67-5.41,1.59-10.75,3.96-15.71,1.84-3.87,4.23-6.83,8.16-8.68,3.51-1.65,7.46-2.28,11.3-2.49,7.16-.38,14.39.64,21.36,2.23,1.5.34,2.99.86,4.5,1.15.97.19,2.03.09,3,.06,7.48-.27,14.91-2.24,21.71-5.31,5.31-2.4,10.25-5.55,14.71-9.29,2.65-2.21,4.96-4.81,7.63-6.99,2.46-2.01,5.24-3.69,8.23-4.77,8.52-3.07,17.64-.82,25.08,3.9,1.46.92,3.35,1.98,4.48,3.33-.24-.28.21.51.31.7.42.82.9,1.6,1.41,2.36,3.52,5.19,9.05,8.82,15.52,7.85,2.16-.32,4.24-1.11,6.17-2.12,2.24-1.17,4.12-2.84,6.29-4.11,3.18-1.85,6.86-2.65,10.5-2.87,8.36-.5,16.79,1.67,24.64,4.34,9.09,3.1,17.59,7.33,26.01,11.86,7.19,3.88,14.59,7.4,22.12,10.55,5.13,2.14,10.34,4.1,15.65,5.71,2.53.77,5.09,1.46,7.67,2.03,2.38.52,4.84.78,7.17,1.5,7.24,2.23,11.83,8.66,12.51,16.09.58,6.3-1.31,13.71-6.56,17.69-2.65,2.02-6.03,2.22-8.85,3.94-3.22,1.97-5.76,4.9-7.85,8.01-3.93,5.86-6.54,12.65-8.44,19.42-.58,2.09-.89,4.05-1.21,6.18-.77,5.14-1.87,10.24-3.33,15.23-3.11,10.62-9.54,26.95-23.1,26.2-1.99-.11-3.84-.7-5.76-1.19-2.66-.67-5.4-1.11-8.14-1.26-4.64-.25-9.33.35-13.72,1.86-6,2.06-11.49,5.73-15.73,10.46-.66.74-1.48,1.54-1.91,2.45-.35.73-.55,1.57-.84,2.33-1.78,4.59-4.06,9.01-6.75,13.13-3.72,5.68-8.41,10.91-14.28,14.43-7.02,4.2-15.2,5.23-23.14,3.35-2.79-.66-5.48-1.64-8.28-2.28s-5.74-1.09-8.65-1.34c-5.36-.45-10.77-.16-16.06.77-8.44,1.49-16.57,4.67-23.93,9.05-3,1.79-6.01,3.76-8.61,6.1-.72.65.34,1.71,1.06,1.06Z"/><path class="cls-36" d="M547.47,207.65l-1.43.97-41.29,28.03s4.66,20.16-1.29,25.54l-8.57,1.91-3.6,31.07,23.82,12.95,47.9-14.24-5.44-20.46-10.36-6.47s-6.21-20.2.26-59.3Z"/><path class="cls-16" d="M547.09,207c-4.7,3.19-9.41,6.39-14.11,9.58-7.71,5.24-15.43,10.47-23.14,15.71-1.83,1.24-3.65,2.48-5.48,3.72-.29.2-.42.5-.34.85.91,3.94,1.46,8.01,1.65,12.05.14,2.96.12,6.04-.66,8.92-.35,1.26-.88,2.29-1.62,3.36-.08.12-.53.47-.16.29-.07.03-.17.03-.24.05-.43.12-.88.2-1.31.29-2.33.52-4.66,1.04-6.99,1.56-.35.08-.51.4-.55.72-1.05,9.07-2.1,18.13-3.15,27.2-.15,1.29-.3,2.58-.45,3.87-.03.25.16.53.37.65,4.66,2.53,9.32,5.07,13.98,7.6l8.21,4.46c.87.47,1.61,1.11,2.6.84,4.54-1.23,9.03-2.69,13.54-4.03l21.12-6.28c4.28-1.27,8.56-2.55,12.85-3.82.39-.12.63-.52.52-.92-1.37-5.15-2.74-10.29-4.1-15.44l-.97-3.66c-.13-.5-.2-1.28-.55-1.69-.47-.54-1.42-.91-2.01-1.28l-4.26-2.66-3.62-2.26s-.61-.39-.61-.38c-1.97,2.9.34.41.33.42.01-.01-.03-.08-.03-.1.02-.29-.2-.75-.27-1.03-.16-.64-.3-1.29-.43-1.94-1.18-5.81-1.66-11.77-1.85-17.69-.4-12.75.78-25.53,2.85-38.1.16-.94-1.29-1.35-1.45-.4-2.95,17.95-4.52,36.88-1.31,54.92.25,1.39.53,2.79.89,4.16.26,1.01.87,1.29,1.76,1.84l8.14,5.09c.22.14.62.52.88.55.39.05-.89.19-.25-.38-.02.01.06.19.06.22.02.84.49,1.85.7,2.65,1.56,5.86,3.11,11.71,4.67,17.57l.52-.92c-10.39,3.09-20.77,6.18-31.16,9.26l-15.49,4.61c-.23.07-1.02.16-1.18.35s.51.24.44.06c-.05-.12-.55-.3-.66-.36l-6.99-3.8c-5.37-2.92-10.74-5.83-16.1-8.75l.37.65c1.05-9.07,2.1-18.13,3.15-27.2.15-1.29.3-2.58.45-3.87l-.55.72c2.2-.49,4.4-.98,6.59-1.47.69-.15,1.62-.2,2.23-.57.95-.59,1.6-1.99,2.01-2.97,1.16-2.8,1.34-5.99,1.32-8.99s-.35-6.18-.82-9.24c-.26-1.72-.55-3.44-.94-5.13l-.34.85c4.94-3.36,9.89-6.71,14.83-10.07,7.5-5.09,14.99-10.18,22.49-15.27l5.4-3.67c.79-.54.04-1.84-.76-1.3Z"/><path class="cls-36" d="M475.55,150.43s2.19,39.5-1.85,52.5c-4.04,13,5.74,31.86,5.74,31.86,0,0,9.43,20.64,22.79,22.91,13.36,2.26,46.33-17.78,46.33-17.78,0,0,8.86-5.66,8.59-14.93,0,0,16.42.28,20.29-16.31,3.87-16.59-9.34-23.03-9.34-23.03,0,0-9.56-.04-10.29,3.82-.73,3.86,1.38-13.69,1.38-13.69l-40.38-23.83-45.23-13.25,1.98,11.72Z"/><path class="cls-16" d="M474.8,150.43c.63,11.41.84,22.91.38,34.33-.15,3.66-.38,7.33-.83,10.96-.19,1.56-.44,3.12-.77,4.66s-.85,3-1.15,4.53c-1.6,8.34.91,17.26,4.01,24.97,1.22,3.04,2.62,6.02,4.22,8.87,3.48,6.2,7.91,12.37,13.83,16.44,2.8,1.92,6.05,3.31,9.47,3.43,3.05.11,6.13-.55,9.06-1.35,7.38-2.01,14.44-5.26,21.26-8.68,4.71-2.36,9.35-4.88,13.88-7.56,3.71-2.2,6.84-5.7,8.51-9.67.85-2.03,1.26-4.17,1.22-6.37l-.75.75c2.9.04,5.94-.73,8.6-1.83,5.69-2.37,9.87-6.99,11.8-12.84,2.16-6.55,1.86-14.01-2.16-19.79-1.26-1.82-2.81-3.42-4.57-4.76-.69-.53-1.51-1.21-2.34-1.52-.65-.24-1.48-.08-2.16-.03-1.47.1-2.94.29-4.37.66s-2.83.86-3.85,1.86c-.45.44-.79.98-.97,1.59-.04.13-.11.35-.11.49.03.41-.22-.19.45-.28l.85.34c.26.43.03.34.09.07.04-.17.02-.38.04-.55.04-.56.1-1.12.16-1.67.16-1.62.35-3.24.53-4.86.26-2.29.53-4.57.8-6.86.03-.25-.16-.53-.37-.65-4.58-2.7-9.16-5.41-13.74-8.11-7.26-4.29-14.52-8.57-21.79-12.86-1.58-.93-3.14-2.04-4.8-2.83-1.15-.55-2.54-.78-3.76-1.14-7.75-2.27-15.51-4.54-23.26-6.81-6.03-1.77-12.04-3.7-18.12-5.31-.11-.03-.21-.06-.32-.09-.59-.17-1.01.38-.92.92.66,3.91,1.32,7.81,1.98,11.72.16.95,1.61.55,1.45-.4-.66-3.91-1.32-7.81-1.98-11.72l-.92.92c5.06,1.48,10.13,2.97,15.19,4.45,8.11,2.37,16.21,4.75,24.32,7.12,1.87.55,3.78,1.01,5.62,1.65.27.09-.21-.11,0,0,.18.1.36.21.54.32l2.5,1.48,20.71,12.22c3.5,2.06,6.99,4.13,10.49,6.19l3.76,2.22c.65.39,1.34.92,2.04,1.21.09.04.18.11.27.16l-.37-.65c-.29,2.43-.58,4.87-.85,7.3-.18,1.61-.36,3.22-.52,4.83-.06.64-.41,1.88-.04,2.49.19.31.51.39.85.34.6-.08.57-.84.71-1.26.35-1.09,1.5-1.65,2.5-2.02,2.16-.79,4.38-.84,6.63-1.05.43-.04.39.11.01-.11.06.04.15.06.2.11.33.27.77.45,1.13.69,1.48.99,2.81,2.2,3.97,3.55,4.14,4.85,5.13,11.32,3.78,17.45-1.34,6.07-4.9,11.21-10.55,13.95-2.75,1.33-6.02,2.24-9.1,2.19-.4,0-.76.35-.75.75.09,5.72-3.52,11.3-8.3,14.33-3.49,2.21-7.19,4.14-10.83,6.06-6.55,3.44-13.28,6.67-20.28,9.09-5.89,2.04-12.58,4.03-18.56,1.26-6.64-3.08-11.48-9.46-15.2-15.55-1.64-2.69-3.09-5.5-4.37-8.37-3.17-7.15-5.71-15.2-5.36-23.1.15-3.4,1.34-6.55,1.91-9.89s.85-6.6,1.06-9.91c.8-12.53.51-25.18-.12-37.71-.01-.25-.03-.5-.04-.75-.05-.96-1.55-.97-1.5,0Z"/><circle class="cls-23" cx="479.19" cy="212.95" r="6.29"/><circle class="cls-23" cx="529.83" cy="214.73" r="6.29"/><ellipse class="cls-4" cx="485.88" cy="201.73" rx="6.12" ry="4.7" transform="translate(267.13 680.19) rotate(-87.98)"/><path class="cls-4" d="M480.8,201.56c-.06,2.37.88,5.1,3.14,6.22,2.1,1.04,4.37.08,5.67-1.74,1.52-2.12,1.74-5.13.73-7.5-.88-2.06-2.87-3.7-5.22-3.22-2.8.57-4.2,3.64-4.33,6.24-.02.48.73.48.75,0,.1-2.06,1.03-4.4,3.05-5.29s3.82.29,4.77,1.98c1.1,1.96,1.11,4.56.1,6.57-.86,1.71-2.65,3.11-4.64,2.51-2.38-.72-3.34-3.52-3.28-5.77.01-.48-.74-.48-.75,0Z"/><ellipse class="cls-4" cx="523.17" cy="203.05" rx="6.12" ry="4.7" transform="translate(301.79 718.72) rotate(-87.98)"/><path class="cls-4" d="M518.09,202.88c-.06,2.37.88,5.1,3.14,6.22,2.1,1.04,4.37.08,5.67-1.74,1.52-2.12,1.74-5.13.73-7.5-.88-2.06-2.87-3.7-5.22-3.22-2.8.57-4.2,3.64-4.33,6.24-.02.48.73.48.75,0,.1-2.06,1.03-4.4,3.05-5.29s3.82.29,4.77,1.98c1.1,1.96,1.11,4.56.1,6.57-.86,1.71-2.65,3.11-4.64,2.51-2.38-.72-3.34-3.52-3.28-5.77.01-.48-.74-.48-.75,0Z"/><path class="cls-39" d="M508.38,229.04s-5.67,4.13-13.11-.91"/><path class="cls-22" d="M467.71,204.05c.48,0,.48-.75,0-.75s-.48.75,0,.75h0Z"/><path class="cls-26" d="M494.35,187.94c-4.01-2.66-9.98-4.03-14.09-.92-.76.57-.01,1.88.76,1.3,3.71-2.8,8.98-1.47,12.58.92.81.54,1.56-.76.76-1.3h0Z"/><path class="cls-26" d="M516.99,190.04c3.65-2.07,9.04-3.08,12.46-.09.72.63,1.79-.42,1.06-1.06-3.96-3.46-9.99-2.57-14.27-.14-.84.48-.08,1.77.76,1.3h0Z"/><path class="cls-4" d="M526.36,199.09c.91.26,1.81-.13,2.57-.62.68-.43,1.41-.94,1.74-1.7.08-.19.05-.4-.13-.51-.16-.09-.43-.05-.51.13-.27.63-.85,1.03-1.41,1.4-.6.39-1.32.79-2.05.58-.47-.13-.66.59-.2.72h0Z"/><path class="cls-4" d="M524.64,197.56c.59-.32,1.23-.61,1.74-1.05s.77-1.05.81-1.7c.01-.2-.18-.38-.38-.38-.21,0-.36.16-.38.38,0,.03,0,.06,0,.1,0,.04,0-.03,0,.03s-.02.13-.04.19c-.02.07-.04.14-.07.2s.04-.08-.01.04c-.01.03-.03.06-.04.09-.13.24-.25.39-.48.58.03-.03-.03.02-.04.03-.03.02-.06.04-.09.06-.06.04-.12.08-.18.11-.12.07-.24.14-.37.21-.29.16-.57.31-.86.47-.18.1-.23.34-.13.51s.33.23.51.13h0Z"/><path class="cls-4" d="M483.36,196.5c-1.66-.01-3.2-1.24-3.59-2.85-.11-.47-.84-.27-.72.2.47,1.93,2.32,3.39,4.31,3.4.48,0,.48-.75,0-.75h0Z"/><path class="cls-4" d="M485.16,195.32s-.07-.02-.1-.04c-.06-.02,0,0-.03-.01-.06-.03-.12-.06-.18-.09-.12-.06-.23-.14-.34-.22-.05-.04,0,0-.03-.02-.02-.02-.05-.04-.07-.06-.05-.04-.1-.09-.15-.14s-.09-.1-.14-.15c-.02-.02-.04-.05-.06-.07-.01-.01-.02-.03-.03-.04.02.02.02.02,0,0-.08-.1-.15-.21-.21-.33-.03-.06-.06-.12-.09-.18,0-.02-.03-.08-.01-.03-.01-.03-.03-.07-.04-.1-.05-.13-.08-.26-.11-.39,0-.03-.01-.06-.02-.09,0-.02-.01-.08,0-.03,0-.07-.01-.15-.02-.22,0-.2-.17-.38-.38-.38-.2,0-.38.17-.38.38.05,1.31.94,2.5,2.19,2.92.19.07.41-.07.46-.26.06-.21-.07-.4-.26-.46h0Z"/><path class="cls-4" d="M482.47,205.45c-1.03-.15-2.12.21-2.79,1.03-.13.16-.15.38,0,.53.13.13.4.16.53,0,.07-.08.14-.16.21-.23.04-.04.08-.07.12-.11.02-.02.04-.03.06-.05-.05.04.02-.01.03-.02.08-.06.17-.12.26-.17.05-.03.1-.05.15-.08.02-.01.04-.02.07-.03.06-.03-.08.03.03-.01.1-.04.2-.07.3-.1.05-.01.11-.03.16-.04.02,0,.14-.02.08-.02.11-.01.22-.02.33-.02.05,0,.1,0,.15,0,.03,0,.06,0,.09,0,.01,0,.09.01.03,0,.19.03.41-.05.46-.26.04-.18-.05-.43-.26-.46h0Z"/><path class="cls-4" d="M526.34,207.3c.52-.08,1.13-.08,1.6.16.22.11.38.23.53.42.02.02,0,0,.03.04.02.02.03.05.05.07.03.05.06.11.09.16.03.07-.02-.08.02.04,0,.03.02.05.03.08s.01.05.02.08c0,0,.02.12.01.06.02.2.16.38.38.38.19,0,.4-.17.38-.38-.07-.69-.5-1.27-1.11-1.59-.68-.36-1.47-.36-2.22-.25-.2.03-.31.28-.26.46.06.21.26.29.46.26h0Z"/><path class="cls-35" d="M521.14,201.24c1.45,0,1.45-2.25,0-2.25s-1.45,2.25,0,2.25h0Z"/><path class="cls-35" d="M483.56,199.77c1.45,0,1.45-2.25,0-2.25s-1.45,2.25,0,2.25h0Z"/><path class="cls-37" d="M500.93,202.09c-.56,3.23-1.24,6.53-2.42,9.59-.27.7-.58,1.41-1.06,2-.68.84-1.07,1.72-.77,2.82s1.43,2.83,2.62,3.24c1.43.5,3.04.7,4.52,1.04.94.22,1.34-1.23.4-1.45-1.31-.3-2.62-.6-3.94-.91-.04,0-.6-.18-.62-.14.02-.03.32.31.21.12-.05-.09-.22-.19-.3-.26-.57-.52-1.15-1.14-1.4-1.88-.32-.95.33-1.42.81-2.14.45-.68.76-1.46,1.04-2.22.69-1.83,1.16-3.74,1.59-5.64.28-1.26.55-2.52.77-3.79.16-.94-1.28-1.35-1.45-.4h0Z"/><path class="cls-44" d="M547.81,267.72s6.21,5.18,6.21,9.84-13.98,19.16-35.22,17.09c-21.23-2.07-24.34-17.61-24.34-17.61,0,0,0-7.77,6.73-13.98,6.73-6.21-56.97,22.79-56.97,22.79,0,0-8.29,1.44-9.84,9.01-1.55,7.57-56.97,76.44-64.22,112.18,0,0-106.68,30.04-103.06,78.2l-16.57,2.07,26.93,45.06,7.77-9.84s55.41,14.5,122.74-55.41c0,0-24.86,124.81-33.14,132.58,0,0,118.59,49.72,241.85,4.66,0,0-16.57-56.45-16.57-171.94,0,0,2.79,19.05,20.72,32.11,0,0,45.06,92.7,135.17,77.68l5.7,12.95,30.04-39.88-11.39-4.14s8.8-54.38-104.61-110.83c0,0-22.79-51.27-51.79-90.63,0,0,1.04-5.7-7.77-8.8-8.8-3.11-29.52-22.79-68.36-33.14Z"/><path class="cls-33" d="M407.88,468.98c5-17.21,9.34-34.61,12.98-52.15,1.03-4.94,2-9.9,2.91-14.87.17-.94-1.27-1.35-1.45-.4-3.26,17.62-7.2,35.11-11.82,52.43-1.3,4.88-2.66,9.74-4.07,14.59-.27.93,1.18,1.33,1.45.4h0Z"/><path class="cls-33" d="M601.22,433.67c-2.27-16.12-2.83-32.46-1.69-48.71.07-.96-1.43-.96-1.5,0-1.15,16.38-.55,32.84,1.74,49.1.13.95,1.58.55,1.45-.4h0Z"/><path class="cls-3" d="M266.44,485.78c6.82,12.49,13.36,25.13,19.61,37.91.42.87,1.72.11,1.3-.76-6.25-12.78-12.79-25.42-19.61-37.91-.46-.85-1.76-.09-1.3.76h0Z"/><path class="cls-3" d="M281.18,514.04c-2.85,2.09-5.7,4.19-8.54,6.28-.33.24-.49.65-.27,1.03.19.32.7.51,1.03.27,2.85-2.09,5.7-4.19,8.54-6.28.33-.24.49-.65.27-1.03-.19-.32-.7-.51-1.03-.27h0Z"/><path class="cls-3" d="M277.3,506.27c-3.55,1.91-7.11,3.82-10.66,5.73-.85.46-.09,1.75.76,1.3,3.55-1.91,7.11-3.82,10.66-5.73.85-.46.09-1.75-.76-1.3h0Z"/><path class="cls-3" d="M271.95,495.5c-4.65,1.02-9.17,2.56-13.71,3.97-.92.28-.53,1.73.4,1.45,4.54-1.41,9.06-2.95,13.71-3.97.94-.21.54-1.65-.4-1.45h0Z"/><path class="cls-3" d="M780.31,509.97c-9.32,9.84-17.72,20.52-25.08,31.9-.53.81.77,1.57,1.3.76,7.3-11.27,15.61-21.85,24.85-31.59.66-.7-.4-1.76-1.06-1.06h0Z"/><path class="cls-3" d="M771.17,542.01c-2.16-3.29-4.67-6.33-7.5-9.07-.69-.67-1.76.39-1.06,1.06,2.74,2.65,5.17,5.58,7.26,8.76.53.8,1.83.05,1.3-.76h0Z"/><path class="cls-3" d="M775.8,533.14c-2.66-1.99-5.33-3.98-7.99-5.97-.32-.24-.84-.05-1.03.27-.22.38-.06.78.27,1.03,2.66,1.99,5.33,3.98,7.99,5.97.32.24.84.05,1.03-.27.22-.38.06-.78-.27-1.03h0Z"/><path class="cls-3" d="M786.12,520.59c-1.5-.99-3.08-1.82-4.75-2.5-1.48-.6-3.29-.89-4.53-1.96-.73-.63-1.79.43-1.06,1.06,1.35,1.16,3.09,1.53,4.71,2.16,1.71.66,3.34,1.52,4.86,2.53.81.53,1.56-.76.76-1.3h0Z"/><path class="cls-3" d="M556.99,271.29c2.06,3.38,4.47,7.42,3.12,11.52-.62,1.88-2.1,3.28-3.53,4.57s-2.8,2.39-4.28,3.47c-5.91,4.31-12.66,7.44-19.77,9.15-3.97.95-8.04,1.42-12.11,1.68s-8.32.52-12.19-1.46c-3.32-1.69-6.48-3.92-9.5-6.09s-6.13-4.78-8.36-7.92c-2.61-3.67-3.67-8.2-2.5-12.6,1.07-4.05,3.92-7.39,7.64-9.26.43-.22.05-.86-.38-.65-6.88,3.47-10.27,11.7-7.52,18.98s10.64,12.2,17.06,16.31c1.67,1.07,3.38,2.11,5.25,2.79,2.02.73,4.16.89,6.29.85,4.45-.08,8.96-.46,13.34-1.25,7.98-1.43,15.64-4.63,22.28-9.29,1.73-1.21,3.39-2.52,4.97-3.91s3.1-2.8,3.87-4.74c1.75-4.39-.79-8.87-3.03-12.53-.25-.41-.9-.03-.65.38h0Z"/><path class="cls-3" d="M559.99,280.3l-4.53-1.17c-.38-.1-.83.12-.92.52s.12.82.52.92l4.53,1.17c.38.1.83-.12.92-.52s-.12-.82-.52-.92h0Z"/><path class="cls-3" d="M557.21,287.32c-1.74-1.23-3.49-2.46-5.23-3.69-.33-.23-.83-.06-1.03.27-.22.38-.06.79.27,1.03,1.74,1.23,3.49,2.46,5.23,3.69.33.23.83.06,1.03-.27.22-.38.06-.79-.27-1.03h0Z"/><path class="cls-3" d="M539.12,291.93c.87,1.46,1.74,2.92,2.62,4.39.2.34.68.49,1.03.27s.48-.67.27-1.03c-.87-1.46-1.74-2.92-2.62-4.39-.2-.34-.68-.49-1.03-.27s-.48.67-.27,1.03h0Z"/><path class="cls-3" d="M523.36,296.19c0,1.38,0,2.76,0,4.14,0,.39.34.77.75.75s.75-.33.75-.75c0-1.38,0-2.76,0-4.14,0-.39-.34-.77-.75-.75s-.75.33-.75.75h0Z"/><path class="cls-3" d="M516.77,295.05c-.69,1.91-1.23,3.86-1.61,5.85-.08.4.11.81.52.92.37.1.85-.12.92-.52.39-1.99.92-3.95,1.61-5.85.14-.38-.15-.82-.52-.92-.42-.11-.78.14-.92.52h0Z"/><path class="cls-3" d="M505.07,291.53c-1.65.79-3.15,1.9-4.4,3.23-.27.29-.3.78,0,1.06s.77.31,1.06,0,.61-.62.93-.91c.16-.14.33-.29.5-.42.04-.03.08-.06.11-.09.1-.08-.01,0,.05-.04.09-.07.17-.13.26-.2.7-.51,1.45-.96,2.24-1.34.35-.17.48-.7.27-1.03-.23-.36-.65-.45-1.03-.27h0Z"/><path class="cls-3" d="M496.32,282.96c-2.31-.1-4.69-.18-6.89.63-.38.14-.64.51-.52.92.1.37.54.66.92.52,2.08-.77,4.31-.67,6.5-.57.41.02.75-.36.75-.75,0-.42-.34-.73-.75-.75h0Z"/><path class="cls-3" d="M493.72,278.63c-1.84-.08-3.68-.16-5.52-.24-.41-.02-.75.36-.75.75,0,.42.34.73.75.75,1.84.08,3.68.16,5.52.24.41.02.75-.36.75-.75,0-.42-.34-.73-.75-.75h0Z"/><path class="cls-3" d="M495.22,269.4c-1.26-.98-2.61-1.82-4.07-2.48-.36-.16-.82-.11-1.03.27-.17.33-.11.85.27,1.03.68.31,1.35.66,2,1.05.32.19.64.4.95.61.16.11.31.21.46.33.08.06.15.11.23.17.02.02.24.18.13.1.16.13.31.22.53.22.18,0,.4-.08.53-.22.25-.27.33-.8,0-1.06h0Z"/><path class="cls-6" d="M504.74,167.53s-8.64,10.11-25.54,17.35c-15.66,6.7-16.11.42-16.11.42,0,0,9.31-20.84,7.22-32.44-2.09-11.59,10.25-30.72,10.25-30.72,0,0,13.39-25.13,38.96-17.73,25.57,7.4,38.07-5.76,38.07-5.76,0,0,21.44-13.69,42.11,11.75,20.66,25.44,46.68,15.51,46.68,15.51,0,0,16.65-14.47,32.65-7.41,0,0-12.91,8.7-16.74,22.53-3.82,13.83-28.08,22.82-28.08,22.82,0,0-29.62-4.52-36.1,17.4-5.65,19.12-28.8,19.89-28.8,19.89,0,0-21.87,5.35-42.46-13.72l-22.12-19.89Z"/><path class="cls-27" d="M504.21,167c-2.55,2.97-5.73,5.52-8.87,7.83-3.45,2.53-7.1,4.79-10.9,6.75-4.27,2.21-8.81,4.31-13.54,5.28-1.84.38-4.38.8-6.08-.3-.25-.16-1.18-1.39-1-1.4.15-.01-.25.66-.05.45.1-.11.16-.37.22-.51.32-.76.64-1.52.95-2.28,1.06-2.64,2.03-5.33,2.91-8.04,2.12-6.56,4.19-13.92,3.37-20.88-.18-1.52-.43-2.98-.38-4.52.06-1.75.33-3.48.72-5.19.81-3.53,2.09-6.95,3.56-10.25,2.66-5.95,5.94-12.18,10.15-17.23,3.41-4.08,7.54-7.61,12.33-9.96,6.45-3.16,13.73-3.7,20.66-1.92,4.5,1.16,8.91,2.23,13.57,2.5,3.66.21,7.34-.01,10.93-.73,4.67-.94,9.29-2.75,13.15-5.58.76-.56,1.44-1.18,2.15-1.79.13-.11-.25.14.12-.07s.71-.4,1.08-.58c3.59-1.79,7.64-2.74,11.64-2.86,7.15-.22,13.94,2.4,19.61,6.67,4.13,3.11,7.22,7.05,10.66,10.86,2.98,3.3,6.37,6.25,10.12,8.65,9.58,6.13,21.52,8.18,32.59,5.51.86-.21,1.79-.4,2.61-.75.75-.33,1.4-1.02,2.06-1.5,5.15-3.77,11.2-6.73,17.56-7.61,4.26-.59,8.6-.12,12.56,1.59v-1.3c-6.33,4.28-11.84,10.73-15.07,17.61-1.18,2.5-1.71,5.23-2.88,7.72-.97,2.07-2.33,3.92-3.86,5.6-3.24,3.53-7.21,6.33-11.32,8.75-3.11,1.83-6.35,3.45-9.67,4.86-.44.19-1.46.38-1.8.73.1-.1.61.07.1-.03-.24-.05-.5-.06-.75-.09-5.78-.64-11.83-.31-17.46,1.17-8.39,2.21-15.45,7.58-18.27,16-.85,2.55-1.72,4.98-3.2,7.25-1.27,1.96-2.84,3.7-4.62,5.22-3.16,2.7-6.95,4.6-10.89,5.87-3.58,1.15-7.18,1.47-10.84,2.1-7.86,1.35-16.28,0-23.65-2.85-6.38-2.48-12.05-6.3-17.1-10.88-1.55-1.4-3.1-2.79-4.66-4.19-5.44-4.89-10.88-9.78-16.32-14.67-.38-.34-.75-.68-1.13-1.02-.72-.64-1.78.41-1.06,1.06,4.45,4,8.91,8.01,13.36,12.01,5.58,5.01,11.04,10.53,17.39,14.53,8.67,5.46,18.99,8.45,29.26,7.91,1.79-.09,3.52-.38,5.29-.66-.4.06-.01.01.12,0,.3-.01.6-.04.9-.07,1.12-.11,2.24-.27,3.34-.47,7.72-1.39,15.47-4.88,20.44-11.14,1.53-1.92,2.75-4.04,3.67-6.31.98-2.41,1.56-4.91,2.84-7.19,2.15-3.83,5.46-6.78,9.36-8.77,6.27-3.19,13.66-3.99,20.61-3.62.89.05,1.78.11,2.66.21.57.06.36.17.98.06s1.35-.54,1.96-.79c1.36-.57,2.7-1.18,4.02-1.82,3.99-1.93,7.87-4.16,11.44-6.8s7.32-6.04,9.58-10.15c1.24-2.25,1.74-4.75,2.69-7.12,1.13-2.82,2.67-5.47,4.44-7.93,2.59-3.6,5.75-6.84,9.22-9.61.52-.41,1.05-.82,1.6-1.2.41-.28.56-1.05,0-1.3-7.6-3.27-15.84-2.18-23.23,1.12-2.75,1.23-5.38,2.75-7.84,4.49-.68.48-1.35.98-2,1.5-.14.11-.31.22-.43.35-.19.22.4-.15.22-.12-.82.13-1.68.53-2.49.73-1.83.45-3.69.76-5.56.94-6,.57-12.09-.14-17.77-2.16-3.81-1.36-7.39-3.32-10.65-5.71-3.99-2.92-7.19-6.51-10.38-10.25-5.49-6.45-12.58-11.92-20.98-13.8-5.25-1.18-10.78-.9-15.9.76-1.8.59-4.02,1.27-5.48,2.54-8.22,7.08-19.58,8.74-30.06,7.06-4.55-.73-8.9-2.39-13.5-2.85-3.47-.35-7.01-.11-10.39.74-5.78,1.45-10.99,4.66-15.29,8.74-4.61,4.37-7.97,9.73-10.94,15.29-3.28,6.12-6.31,12.79-7.21,19.73-.21,1.62-.3,3.25-.13,4.88s.46,3.2.45,4.85c0,3.74-.69,7.45-1.58,11.07-1.38,5.63-3.28,11.17-5.56,16.51-.27.62-.47,1.05-.24,1.72.37,1.09,1.32,1.85,2.36,2.27,2.2.88,4.82.46,7.05-.06,4.71-1.09,9.23-3.18,13.5-5.4,6.4-3.33,12.49-7.48,17.72-12.48.75-.72,1.5-1.45,2.17-2.23.63-.73-.43-1.8-1.06-1.06Z"/><path class="cls-17" d="M560.6,217.36c1.2,2.09,1.87,4.45,1.91,6.86.01.62-.01,1.25-.08,1.87-.02.18-.22,1.28-.23,1.28.04-.03.08-.06.13-.07.12-.09.25-.1.39-.02.36.06.33.15.22-.02-.12-.19-.32-.35-.46-.53-.33-.44-.63-.94-.84-1.44-.31-.75-1-1.28-1.85-1.05-.71.19-1.36,1.09-1.05,1.85.34.83.72,1.6,1.26,2.32s1.17,1.55,2.12,1.76c1.06.24,2.11-.37,2.65-1.27.48-.81.55-1.89.65-2.8.36-3.53-.48-7.17-2.25-10.24-.96-1.67-3.56-.16-2.59,1.51h0Z"/><path class="cls-17" d="M565.57,216.65c.65.66,1.31,1.31,1.9,2.02.06.07.12.14.18.21,0,0,.24.3.14.17-.11-.14.11.15.13.18.07.09.13.19.2.28.26.38.49.77.69,1.18.05.1.1.21.15.31-.06-.14-.04-.09,0,.02.08.23.16.46.22.69,0,0,.08.4.06.25-.02-.16,0,.22,0,.25v.15c.02-.15.02-.17,0-.07-.03.09-.05.19-.08.29.06-.19.03-.14-.03.02-.05.12.2-.15-.02.02.19-.14.07,0,.02-.02.14-.04.15-.05.05-.02-.06.02-.13.04-.19.05.14-.03.15-.02,0-.02-.4,0,.14.05-.08,0-.25-.06-.49-.12-.74-.21-.74-.26-1.67.3-1.85,1.05-.19.84.25,1.56,1.05,1.85,1.35.48,3.03.45,4.01-.74s1.03-2.73.53-4.14c-.82-2.35-2.52-4.16-4.24-5.89-.55-.56-1.57-.6-2.12,0s-.59,1.53,0,2.12h0Z"/><path class="cls-17" d="M571.02,212.42c1.37.42,2.94.89,3.74,2.18.41.66.46,1.41.41,2.16-.01.2-.04.41-.06.61-.01.12,0,.3-.1.37-.09.06-.28.05-.38.07-.16.03-.31.08-.45.16-.41.25-.03.9.38.65.28-.18.65-.08.93-.29.36-.27.36-.77.4-1.18.1-.91.08-1.85-.34-2.68-.82-1.64-2.69-2.27-4.32-2.77-.46-.14-.66.58-.2.72h0Z"/><path class="cls-17" d="M574.3,206.41c.48,0,.48-.75,0-.75s-.48.75,0,.75h0Z"/><path class="cls-17" d="M546.76,267.14c-.73,1.7-1.54,3.42-2.84,4.76-1.2,1.24-2.74,2.09-4.31,2.76-3.65,1.58-7.63,2.47-11.58,2.86-3.68.37-7.67.6-11.26-.45-2.91-.85-5.53-2.56-7.59-4.76-2.39-2.56-4.04-5.85-4.47-9.34-.17-1.42-2.43-1.44-2.25,0,.84,6.83,5.38,12.88,11.74,15.56,3.87,1.63,8.12,1.66,12.24,1.38,4.41-.3,8.82-1.13,12.95-2.74,1.99-.77,3.93-1.71,5.54-3.13,1.76-1.55,2.86-3.64,3.77-5.77.56-1.32-1.37-2.46-1.94-1.14h0Z"/></g><g id="Layer_2"><polygon class="cls-47" points="678.66 250.35 712 384.5 830.13 309.57 798.5 182.31 678.66 250.35"/><polygon class="cls-47" points="712 384.5 830.83 309.12 914.2 284.34 806.04 363.31 712 384.5"/><polygon class="cls-47" points="685.16 252.46 715.72 375.44 824 306.75 795.01 190.1 685.16 252.46"/><polygon class="cls-47" points="741.49 369.84 830.67 313.27 893.24 294.66 812.07 353.93 741.49 369.84"/><path class="cls-29" d="M836.93,312.13c-8.32,7.51-16.96,14.66-25.88,21.44-3.2,2.43-6.45,4.82-9.86,6.94-2.88,1.78-5.87,3.37-8.8,5.06-8.7,5.01-16.88,10.93-24.35,17.64"/><path class="cls-18" d="M836.67,311.87c-8.59,7.74-17.5,15.12-26.73,22.08-4.47,3.37-9.07,6.42-13.95,9.16s-9.49,5.48-14,8.61c-4.97,3.44-9.71,7.2-14.21,11.23-.36.32.17.85.53.53,8.27-7.4,17.34-13.71,27.01-19.13,4.9-2.74,9.58-5.69,14.08-9.05s8.78-6.73,13.06-10.22c5.02-4.1,9.94-8.33,14.76-12.67.36-.32-.17-.85-.53-.53h0Z"/><path class="cls-29" d="M784.08,360.3c21.31-15.95,44.69-29.88,61.65-50.39"/><path class="cls-18" d="M784.27,360.62c16.61-12.42,34.33-23.51,49.58-37.67,4.31-4,8.39-8.25,12.15-12.78.31-.37-.22-.9-.53-.53-13.31,16.04-30.48,28.07-47.35,40.04-4.77,3.39-9.54,6.79-14.23,10.29-.38.29,0,.94.38.65h0Z"/><path class="cls-29" d="M857.59,305.67c-5.85,7.33-13,13.5-20.05,19.69-11.23,9.86-22.32,19.88-33.26,30.06"/><path class="cls-18" d="M857.32,305.4c-5.65,7.04-12.44,13.01-19.2,18.94-7.32,6.42-14.59,12.91-21.79,19.47-4.13,3.76-8.24,7.54-12.32,11.35-.35.33.18.86.53.53,7.15-6.66,14.37-13.25,21.65-19.77s14.22-12.35,21.1-18.78c3.75-3.51,7.35-7.2,10.57-11.21.3-.37-.23-.91-.53-.53h0Z"/><path class="cls-29" d="M855.11,321.98c2.81-6.8,6.5-13.23,10.95-19.08"/><path class="cls-18" d="M855.47,322.08c2.81-6.77,6.49-13.15,10.91-18.99.29-.38-.36-.76-.65-.38-4.46,5.9-8.15,12.34-10.98,19.17-.18.45.54.64.72.2h0Z"/><path class="cls-29" d="M871.62,309.98c.33-.17.52-.5.7-.82,1.78-3.17,3.57-6.34,5.35-9.51"/><path class="cls-18" d="M871.81,310.31c.76-.47,1.13-1.47,1.55-2.21.5-.9,1.01-1.79,1.51-2.69,1.04-1.85,2.09-3.71,3.13-5.56.24-.42-.41-.8-.65-.38-.98,1.73-1.95,3.47-2.93,5.2-.47.84-.94,1.68-1.41,2.51-.24.42-.47.84-.71,1.26s-.45.96-.87,1.23-.03.9.38.65h0Z"/><path class="cls-29" d="M764.84,355.09c5.41-1.39,11.11-.85,16.7-.93,13.52-.19,26.7-4.04,39.67-7.86"/><path class="cls-18" d="M764.94,355.45c4.68-1.16,9.49-.95,14.26-.91s9.39-.31,14.04-1c9.54-1.43,18.82-4.15,28.06-6.87.46-.14.27-.86-.2-.72-9.24,2.72-18.52,5.45-28.06,6.87-4.83.72-9.67,1.02-14.55.97-4.61-.05-9.25-.17-13.76.95-.47.12-.27.84.2.72h0Z"/><path class="cls-29" d="M787.94,340.07c5.14-.24,10.28.37,15.42.15,11.49-.5,22.54-5.14,34.05-5.34"/><path class="cls-18" d="M787.94,340.45c4.34-.18,8.67.21,13.01.2,3.99,0,7.94-.49,11.85-1.23,8.18-1.53,16.23-3.98,24.6-4.17.48-.01.48-.76,0-.75-8.13.19-15.96,2.47-23.9,4.02-4.15.81-8.33,1.37-12.56,1.37s-8.67-.38-13.01-.2c-.48.02-.48.77,0,.75h0Z"/><path class="cls-29" d="M810.02,326.72c5.99-1.06,12.14.4,18.21,0,6.69-.44,13.06-3.12,19.72-3.91,2.22-.26,4.45-.32,6.68-.37"/><path class="cls-18" d="M810.12,327.08c3.94-.65,7.91-.28,11.86-.05,3.59.21,7.1.15,10.64-.5s6.97-1.68,10.47-2.47c3.82-.86,7.63-1.14,11.53-1.24.48-.01.48-.76,0-.75-3.66.09-7.25.31-10.84,1.07s-7.24,1.87-10.92,2.58c-3.87.75-7.69.76-11.61.52s-7.57-.5-11.34.12c-.48.08-.27.8.2.72h0Z"/><path class="cls-29" d="M822.85,318.1c15.74-2.56,31.32-6.09,46.63-10.56,2.69-.78,5.4-1.6,8.19-1.76"/><path class="cls-18" d="M822.95,318.46c9.22-1.51,18.39-3.33,27.48-5.49,4.55-1.08,9.07-2.24,13.57-3.48s9.01-3.01,13.67-3.33c.48-.03.48-.78,0-.75-4.58.32-9.01,2.01-13.4,3.23s-9.03,2.41-13.57,3.5c-9.25,2.21-18.57,4.07-27.95,5.6-.48.08-.27.8.2.72h0Z"/><polygon class="cls-41" points="685.81 252.91 716.37 375.89 824.65 307.2 795.66 190.55 685.81 252.91"/><path class="cls-35" d="M694.22,257.07c.7-.16,1.11-.72,1.58-1.21s1.08-.8,1.74-1c1.31-.41,2.73-.52,3.91-1.29.4-.26.03-.91-.38-.65-1.15.75-2.55.83-3.83,1.24-.61.2-1.18.47-1.67.88s-.87,1.15-1.55,1.3c-.47.11-.27.83.2.72h0Z"/><path class="cls-35" d="M704.28,252.09c.48,0,.48-.75,0-.75s-.48.75,0,.75h0Z"/><path class="cls-35" d="M706.71,250.67l2.59-1.4c.82-.44,1.57-.81,2.18-1.52,1.15-1.33,2.73-1.92,4.43-2.19.48-.07.27-.8-.2-.72-1.64.26-3.31.83-4.47,2.06-.3.31-.55.68-.9.94-.39.28-.84.48-1.26.71l-2.75,1.48c-.43.23-.05.88.38.65h0Z"/><path class="cls-35" d="M698.43,261.13l-.66,1.75-.31.84c-.1.27-.16.58.12.77.22.15.53.21.79.3.29.1.59.2.88.3.59.2,1.17.4,1.76.6.46.16.65-.57.2-.72-.55-.19-1.1-.37-1.64-.56-.27-.09-.53-.18-.8-.27-.13-.04-.25-.09-.38-.13-.08-.03-.15-.05-.23-.08l-.08-.03c-.12-.05-.11-.03.03.08v.2c.04-.23.16-.46.24-.68l.27-.72.54-1.44c.07-.19-.08-.41-.26-.46-.21-.06-.39.07-.46.26h0Z"/><path class="cls-35" d="M701.51,261.09c.53,2.04,1.22,4.04,2.06,5.98.08.19.35.23.51.13.19-.11.21-.33.13-.51-.81-1.88-1.47-3.82-1.98-5.8-.12-.47-.84-.27-.72.2h0Z"/><path class="cls-35" d="M701.99,261.4c.41-.16.64-.54.99-.78.32-.22.72-.44,1.11-.47.17-.01.34.02.45.11.03.03.09.09.09.11.03.07.02.14,0,.21-.05.18-.19.34-.31.48-.15.17-.3.32-.47.48-.36.33-.76.62-1.19.86s-.04.88.38.65c.47-.26.91-.58,1.31-.94s.84-.78,1-1.29c.18-.57-.15-1.11-.67-1.32s-1.13-.03-1.62.2c-.27.13-.51.3-.74.48-.1.09-.2.18-.3.28-.07.07-.16.19-.24.22-.19.07-.32.25-.26.46.05.18.27.33.46.26h0Z"/><path class="cls-35" d="M705.97,257.98l1.59.29.43.08c.05,0,.11.03.16.03.03,0,.05.01.08.02l-.1-.11s-.08.2-.09.22c-.06.13-.13.27-.19.4-.48,1.01-.97,2.01-1.47,3.02-.21.43.43.81.65.38.58-1.18,1.19-2.36,1.73-3.57.11-.24.19-.52.05-.77-.15-.26-.42-.31-.69-.36l-1.94-.35c-.2-.04-.4.05-.46.26-.05.18.06.42.26.46h0Z"/><path class="cls-35" d="M711.63,257.86l1.01-.81c.27-.22.62-.62.96-.72.17-.05.38,0,.56,0s.35-.01.52-.04c.35-.06.69-.19,1-.36,1.33-.7,2.12-2.09,3.43-2.82.42-.23.05-.88-.38-.65-1.35.74-2.15,2.21-3.54,2.87-.35.17-.72.25-1.1.24-.35-.01-.66-.04-.98.14-.34.2-.65.49-.95.74l-1.07.85c-.38.3.16.83.53.53h0Z"/><path class="cls-35" d="M722.12,252.02l.15-1.23-.56.32c.94.68,2.16.56,3.05-.14.69-.54,1.22-1.47,2.14-1.66.47-.1.27-.82-.2-.72-.91.19-1.48.94-2.12,1.55-.31.3-.65.55-1.08.65-.5.11-1-.03-1.41-.32-.26-.19-.53.07-.56.32l-.15,1.23c-.02.2.19.37.38.38.22,0,.35-.17.38-.38h0Z"/><path class="cls-35" d="M730.01,247.64c.3-.21.62-.4.95-.56.09-.04.17-.08.26-.12.11-.05-.07.03.04-.02.04-.02.09-.04.13-.05.18-.07.36-.13.54-.18s.32-.27.26-.46-.26-.32-.46-.26c-.75.22-1.47.56-2.11,1.01-.16.11-.25.33-.13.51.1.16.34.26.51.13h0Z"/><path class="cls-35" d="M713.35,261.87c.32.23.49.63.78.9.21.19.45.35.7.46.52.24,1.11.31,1.67.19,1.23-.27,1.97-1.36,2.06-2.56.06-.74-.11-1.84.74-2.17.64-.25,1.38-.22,2.04-.47,1.31-.51,2.43-1.4,3.73-1.95.44-.19.06-.83-.38-.65-1.5.64-2.8,1.82-4.43,2.14-.7.14-1.42.12-1.92.7-.46.54-.5,1.28-.51,1.96-.03.91-.26,1.74-1.15,2.15-.82.38-1.75.05-2.29-.63-.33-.41-.84-.95-1.43-.59-.46.29-.38.88,0,1.17s.76-.37.38-.65h0Z"/><path class="cls-35" d="M726.13,255.39c.69.1,1.41.2,2.11.14s1.24-.47,1.79-.87c1.13-.81,2.17-1.74,3.11-2.78.32-.36-.21-.89-.53-.53-.84.92-1.76,1.78-2.76,2.52-.44.32-.96.81-1.52.9-.63.1-1.36,0-1.99-.1-.47-.07-.68.65-.2.72h0Z"/><path class="cls-35" d="M716.64,269.21l3.04-1.2c.91-.36,1.85-.67,2.62-1.29.38-.3-.16-.83-.53-.53-.71.57-1.65.85-2.49,1.18l-2.84,1.12c-.44.17-.25.9.2.72h0Z"/><path class="cls-35" d="M725.09,264.91c.93-.67,1.72-1.5,2.33-2.47.14-.22.25-.45.39-.67.25-.37.52-.38.94-.41.55-.03,1.06-.18,1.55-.43,1.16-.59,2.18-1.52,3.22-2.31,1.15-.88,2.3-1.76,3.44-2.65.38-.3-.15-.82-.53-.53-1.15.9-2.31,1.79-3.47,2.67-1.01.77-2.04,1.73-3.21,2.26-.56.25-1.13.16-1.71.31-.42.11-.69.42-.91.78-.67,1.09-1.36,2.04-2.41,2.81-.39.28-.01.93.38.65h0Z"/><path class="cls-35" d="M706.11,285.43l-.5,2.01c-.09.35-.18.7-.26,1.05-.06.26-.11.55-.04.81.19.7.98.65,1.56.69.7.04,1.41.09,2.11.13.48.03.48-.72,0-.75-.61-.04-1.21-.08-1.82-.12-.29-.02-.57-.03-.86-.05-.18-.01-.28-.03-.28-.23,0-.23.09-.47.15-.69l.22-.89.44-1.77c.12-.47-.61-.67-.72-.2h0Z"/><path class="cls-35" d="M708.9,285.88c.36.44.69.92,1.08,1.34.29.31.69.36,1,.03.14-.16.22-.36.25-.57.01-.08.02-.16.04-.24.03-.12.07-.11-.02-.11.09,0,.25.14.35.16.1.02.21.02.3,0,.22-.06.39-.21.52-.39s.2-.37.28-.57c.03-.09.06-.19.09-.28.03-.08.14-.24.14-.31.05-.05.03-.08-.07-.07.05.04.1.08.15.12.08.05.16.1.25.13.19.06.4.07.6.03.42-.08.79-.36,1.09-.67s.59-.74,1.03-.76c.48-.03.48-.78,0-.75-.42.02-.76.2-1.07.48s-.53.62-.88.83c-.16.1-.37.2-.56.12-.18-.08-.26-.22-.47-.26-.41-.06-.67.31-.82.64-.08.18-.13.37-.2.56-.03.09-.06.19-.12.27-.09.13-.09.13-.23.09-.36-.12-.68-.17-.93.19-.09.13-.15.29-.18.45-.02.08-.02.16-.04.24,0,.06-.03.11-.06.16l.08-.03c-.2-.17-.38-.46-.54-.67l-.54-.67c-.3-.37-.83.16-.53.53h0Z"/><path class="cls-35" d="M716.99,280.12c1.32.19,2.62.55,3.84,1.09.14.06.28.13.42.2.01,0,.16.1.18.1,0-.2-.02-.24-.07-.14l-.05.07c-.21.3-.43.6-.64.9-.43.6-.86,1.2-1.29,1.8-.12.16-.03.42.13.51.19.11.39.03.51-.13.48-.67.97-1.35,1.45-2.02.13-.17.25-.35.38-.52.1-.14.23-.29.27-.46.08-.38-.23-.62-.53-.76-1.39-.67-2.87-1.13-4.4-1.34-.2-.03-.4.05-.46.26-.05.18.06.43.26.46h0Z"/><path class="cls-35" d="M723.42,277.91l.22-.96s.07-.46.11-.48.18.06.24.08c.6.21,1.2.32,1.83.24.27-.03.67-.23.93-.13s.55.5.76.69c.37.34.8.9,1.37.8.5-.09.84-.66,1.12-1.04.35-.49.65-1.02.89-1.58.11-.24.17-.52.46-.56.24-.03.38,0,.57-.18.17-.17.24-.42.32-.64.13-.35.27-.71.4-1.06.17-.45-.55-.65-.72-.2-.12.33-.25.65-.37.98-.16.42-.12.27-.48.35-.44.1-.65.54-.81.92-.25.58-.56,1.14-.93,1.65-.1.13-.2.3-.32.41-.07.11-.18.17-.31.19l-.11-.09c-.28-.13-.6-.55-.83-.76-.4-.36-.73-.74-1.31-.63-.7.13-1.29.25-1.99.01-.41-.14-.92-.38-1.25.05-.15.19-.18.48-.23.71l-.24,1.04c-.11.47.61.67.72.2h0Z"/><path class="cls-35" d="M734.55,273.15c.63-.28,1.19-.68,1.63-1.21.33-.4.62-1.38,1.11-1.55.61-.21,1.32.36,1.99.19.59-.16,1.03-.89,1.67-.72.49.13.89.43,1.4.13.43-.25.58-.77.77-1.2.33-.75.97-.95,1.72-1.09.87-.16,1.74-.29,2.61-.43.48-.08.27-.8-.2-.72-.87.14-1.74.27-2.61.43-.59.11-1.24.27-1.69.7-.43.4-.49.96-.8,1.43-.27.42-.59.16-.96.03-.25-.09-.5-.12-.76-.06-.59.14-.98.82-1.61.79s-1.24-.43-1.89-.14c-.54.24-.72.8-1,1.27-.41.69-1.03,1.18-1.76,1.5-.44.19-.06.84.38.65h0Z"/><path class="cls-35" d="M751.14,265.03c1.07-.35,1.62-1.28,2.18-2.19.14-.22.27-.45.42-.65.33-.43.63-.36,1.1-.28.5.08.89-.02,1.23-.4.15-.16.25-.43.42-.56.25-.19.42.01.68.07.56.14,1.03-.24,1.38-.63.23-.26.41-.53.77-.62s.7-.05,1.04-.14c.57-.16,1.3-.96,1.91-.65.43.22.81-.43.38-.65-.57-.29-1.13-.16-1.67.14-.3.17-.57.37-.91.45-.31.07-.64.05-.95.12-.29.07-.54.21-.76.42-.24.23-.5.76-.86.82-.27.05-.57-.21-.85-.21-.22,0-.4.09-.56.22s-.28.32-.41.49c-.25.35-.45.41-.88.34-.59-.1-1.06-.07-1.48.4-.8.88-1.13,2.37-2.38,2.77-.46.15-.26.87.2.72h0Z"/><path class="cls-35" d="M766.02,253.51c.09.71.13,1.43.13,2.14,0,.34-.02.69-.04,1.03-.02.27-.06.54.04.8.25.68,1.13.45,1.68.38.69-.09,1.38-.22,2.06-.39.47-.12.27-.85-.2-.72-.57.15-1.15.27-1.73.35-.28.04-.57.07-.85.09-.06,0-.13.01-.19.01,0,0-.19,0-.1,0s0,.1.02-.01c0-.02,0-.08,0-.11,0-.26.04-.53.05-.79.02-.32.02-.64.02-.95,0-.61-.05-1.22-.13-1.82-.03-.2-.15-.38-.38-.38-.18,0-.4.17-.38.38h0Z"/><path class="cls-35" d="M769.38,254.77c.66.32,1.32-.17,1.47-.83.04-.18.05-.37.06-.55,0-.11,0-.22.02-.33l.03-.16-.21.12c0,.06.55.33.62.37.21.12.41.25.62.37.24.15.57-.04.56-.32,0-1.17-.28-2.3-.8-3.35l-.59.45c.92.77,1.98,1.81,3.21,2,.54.08,1.04-.06,1.45-.42.35-.3.61-.8,1.06-.95.2-.07.31-.25.26-.46-.05-.22-.25-1.17.24-1.09s.68-.65.2-.72c-.44-.07-.83.09-1.08.47-.31.47-.21,1.04-.09,1.55l.26-.46c-.4.13-.69.39-.96.7-.32.35-.61.71-1.12.68-.56-.03-1.08-.4-1.52-.71-.48-.34-.93-.72-1.38-1.1-.32-.27-.78.06-.59.45.46.93.7,1.94.7,2.98l.56-.32c-.35-.21-.7-.42-1.05-.63-.26-.16-.57-.34-.86-.13-.25.18-.26.55-.28.83-.01.18,0,.37-.05.55-.03.12-.18.48-.37.39-.43-.21-.81.43-.38.65h0Z"/><path class="cls-35" d="M778.36,246.52c1.58.25,3.15.58,4.69,1.02.18.05.36.1.54.16.07.02.24.1.32.1l.07.02c-.03-.08-.05-.08-.06-.02-.05.03-.09.19-.12.25-.05.1-.1.21-.16.31-.09.17-.17.34-.26.51-.38.75-.77,1.51-1.15,2.26-.22.43.43.81.65.38.44-.86.87-1.71,1.31-2.57.18-.35.49-.77.51-1.17.02-.46-.37-.63-.74-.74-1.76-.54-3.56-.94-5.38-1.23-.47-.07-.68.65-.2.72h0Z"/><path class="cls-35" d="M710.67,300.74l-.25,2.3-.13,1.15-.06.58c-.02.17-.06.34,0,.5.13.36.59.36.91.43.38.08.76.16,1.14.23.76.16,1.52.31,2.28.47.47.1.67-.63.2-.72-.67-.14-1.35-.28-2.02-.41-.33-.07-.66-.13-.99-.2-.17-.04-.35-.07-.52-.11-.13-.03-.34-.03-.45-.11l.17.22c-.04-.12.03-.33.04-.46l.06-.58.12-1.1.24-2.2c.02-.2-.19-.37-.38-.38-.22,0-.35.17-.38.38h0Z"/><path class="cls-35" d="M713.73,301.61c.82,1.38,1.59,2.79,2.31,4.22.22.43.86.05.65-.38-.72-1.43-1.49-2.84-2.31-4.22-.25-.41-.9-.04-.65.38h0Z"/><path class="cls-35" d="M715.47,299.91c.86,1.91,1.65,3.85,2.37,5.82.16.45.89.26.72-.2-.74-2.03-1.56-4.03-2.45-6-.2-.44-.85-.06-.65.38h0Z"/><path class="cls-35" d="M715.78,303.6l1-.71c.08-.06.14-.12.17-.22.02-.09.01-.21-.04-.29s-.13-.15-.22-.17-.21-.02-.29.04l-1,.71c-.08.06-.14.12-.17.22-.02.09-.01.21.04.29s.13.15.22.17.21.02.29-.04h0Z"/><path class="cls-35" d="M718.26,300.19c.27-.51.67-.92,1.18-1.2.12-.06.24-.12.36-.17.02,0,.19-.08.21-.08.04.01.08.13.1.16.14.25.25.52.32.79.31,1.12.09,2.33-.58,3.28-.26.37.29.71.59.45.91-.78,1.97-1.39,3.09-1.8.45-.16.26-.89-.2-.72-1.26.46-2.41,1.12-3.43,1.99l.59.45c.88-1.24,1.07-2.93.5-4.33-.13-.31-.29-.74-.58-.93-.37-.24-.85,0-1.2.16-.68.33-1.24.89-1.6,1.55-.23.43.42.8.65.38h0Z"/><path class="cls-35" d="M721.52,297.15l2.27.26,1.08.13c.21.02.72-.02.82.2s.02.6,0,.84c-.02.38-.06.75-.1,1.13-.08.75-.19,1.5-.33,2.24-.09.47.64.67.72.2.16-.84.28-1.69.36-2.55.04-.44.08-.89.1-1.33.02-.32.02-.65-.14-.94-.19-.34-.53-.43-.89-.48-.43-.05-.86-.1-1.29-.15l-2.63-.31c-.2-.02-.37.19-.38.38,0,.22.17.35.38.38h0Z"/><path class="cls-35" d="M729.57,294.96c.61.62,1.1,1.31,1.49,2.09.06.12.2.18.32.19.43.02.69-.31.82-.69.2-.58.33-1.19.52-1.77.1-.31.26-.63.33-.94l.06-.17c-.07-.04-.07-.02,0,.04.11.06.17.2.24.3.25.4.46.8.92.98,1.14.47,1.48-1.02,1.73-1.81.12-.36.21-.6.6-.71.33-.1.67-.18,1-.27.69-.18,1.37-.36,2.06-.55.47-.12.27-.85-.2-.72-.66.17-1.31.35-1.97.52-.53.14-1.19.21-1.64.53-.39.27-.5.74-.63,1.17-.09.28-.19.55-.3.82-.21.5-.53.3-.76-.05s-.41-.75-.8-.94c-.36-.18-.72-.05-.91.31-.26.47-.39,1.05-.55,1.57-.05.17-.38,1.66-.53,1.65l.32.19c-.41-.83-.95-1.58-1.61-2.24-.34-.34-.87.19-.53.53h0Z"/><path class="cls-35" d="M742.61,288.91l.38,2.09c.06.35.08.81.35,1.08.57.55,1.41-.13,1.87-.49,1.5-1.2,2.41-2.97,2.59-4.87l-.47.36c.51.19,1.08.14,1.5-.23.27-.23.42-.56.66-.82.29-.32.65-.54,1.03-.73.44-.22.89-.49,1.39-.26.28.13.5.3.82.37.61.15,1.2.04,1.75-.25.28-.14.22-.62-.09-.69-.13-.03-.11-1.79-.11-1.99-.03-.71-.06-1.41-.08-2.12l-.47.36c.9.12,1.71.45,2.42,1.03.37.3.9-.22.53-.53-.81-.66-1.71-1.08-2.75-1.23-.23-.03-.49.09-.47.36.04,1.1.09,2.2.13,3.31.02.52-.06,1.39.62,1.52l-.09-.69c-.76.39-1.3.13-1.98-.24-.51-.28-.94-.08-1.44.13s-.99.45-1.41.8c-.55.46-.88,1.46-1.73,1.14-.25-.09-.45.14-.47.36-.14,1.43-.76,2.78-1.77,3.8-.24.24-.49.47-.77.67-.11.08-.31.25-.45.28-.22.04-.17.04-.26-.14-.17-.33-.17-.93-.24-1.31l-.24-1.31c-.09-.47-.81-.27-.72.2h0Z"/><path class="cls-35" d="M758.93,276.33l-.83,2.82-.41,1.41c-.12.4-.27.83-.04,1.22.17.28.5.41.82.46.45.07.91.06,1.36.04.92-.04,1.83-.2,2.71-.49.46-.15.26-.87-.2-.72-.75.24-1.52.4-2.3.45-.39.03-.78.03-1.17,0-.19-.01-.58,0-.59-.25,0-.16.09-.36.14-.51l.17-.57.37-1.25.71-2.4c.14-.46-.59-.66-.72-.2h0Z"/><path class="cls-35" d="M761.58,276.05c1.1,1.85,2.19,3.69,3.29,5.54.25.41.9.04.65-.38-1.1-1.85-2.19-3.69-3.29-5.54-.25-.41-.9-.04-.65.38h0Z"/><path class="cls-35" d="M764.15,274.53c.91,1.35,1.77,2.73,2.57,4.15.24.42.89.04.65-.38-.8-1.42-1.66-2.8-2.57-4.15-.27-.4-.92-.02-.65.38h0Z"/><path class="cls-35" d="M764.09,278.91l.84-.65c.07-.05.11-.18.11-.27,0-.09-.04-.2-.11-.27s-.17-.11-.27-.11h-.1c-.06.03-.12.06-.17.11l-.84.65c-.07.05-.11.18-.11.27,0,.09.04.2.11.27s.17.11.27.11h.1c.06-.03.12-.06.17-.11h0Z"/><path class="cls-35" d="M767.08,272.7c.35-.64.83-1.2,1.42-1.63.29-.21.62-.44.95-.19.27.2.43.53.58.82.72,1.43.97,3.06.78,4.64-.03.28.35.48.56.32.87-.6,1.77-1.15,2.71-1.64.43-.22.05-.87-.38-.65-.94.49-1.84,1.03-2.71,1.64l.56.32c.12-.98.07-1.98-.14-2.94-.2-.9-.53-1.89-1.07-2.64-.23-.31-.52-.61-.9-.71-.45-.12-.87.06-1.23.31-.74.5-1.35,1.18-1.78,1.96-.23.42.41.8.65.38h0Z"/><path class="cls-35" d="M772.87,270.26l1.31.17c.19.02.38.04.56.08.07.02.13.04.19.09-.05-.04.03.04.03.04.06.06-.01-.03.03.04.08.13.1.18.13.35,0,.02,0,.04,0,.06,0-.03,0-.03,0,0,0,.03,0,.07,0,.1,0,.08,0,.16,0,.25-.04.43-.16.84-.13,1.28.02.2.16.38.38.38.19,0,.39-.17.38-.38-.04-.48.12-.93.13-1.41.01-.37-.07-.76-.29-1.06-.14-.18-.31-.32-.52-.41s-.47-.1-.71-.13l-1.5-.19c-.2-.03-.38.19-.38.38,0,.22.17.35.38.38h0Z"/><path class="cls-35" d="M711.9,295.28c.71-.21,1.25-.72,1.94-.99.72-.28,1.45-.39,2.11-.81.6-.38,1.05-1.1,1.8-1.09s1.39-.34,2.01-.8c.38-.28.01-.94-.38-.65-.3.22-.6.45-.95.59-.36.15-.72.07-1.1.13-.69.11-1.11.74-1.67,1.11-.64.43-1.33.54-2.03.8s-1.23.78-1.94.99c-.46.13-.27.86.2.72h0Z"/><path class="cls-35" d="M723.76,289.9l1.27-3.32-.69.09c.63.85,1.23,1.73,1.88,2.56.43.54,1.01,1.13,1.73,1.25,1.75.31,1.98-1.92,2.59-3,.48-.86,1.2-1.42,1.83-2.15.12-.14.24-.28.33-.44.11-.17.15-.47.29-.61.39-.38.97.09,1.4.18,1.85.41,3.27-1.11,4.51-2.23.36-.32-.17-.85-.53-.53-.67.61-1.31,1.3-2.13,1.73-.91.47-1.59.3-2.5-.01-.48-.16-.96-.12-1.28.3-.26.33-.34.75-.62,1.07-.25.29-.55.54-.82.81-.5.5-.92,1.08-1.24,1.71s-.42,1.32-.77,1.9c-1.15,1.89-3.41-2.09-4.02-2.93-.2-.27-.57-.22-.69.09l-1.27,3.32c-.17.45.55.65.72.2h0Z"/><path class="cls-35" d="M733.37,303.26l1.86,1.16c.44.28,1.02.81,1.58.77.51-.03.69-.48.86-.89.12-.3.25-.6.37-.9s.26-.91.51-1.12l-.27.11c.2,0,.43.17.62.22.24.06.5.09.75.08.48-.02.94-.16,1.34-.42.84-.55,1.45-1.78,2.56-1.81.48-.01.48-.76,0-.75-.97.03-1.62.67-2.26,1.32-.4.41-.83.8-1.41.89-.28.05-.58.03-.85-.06-.23-.07-.43-.22-.68-.23-.44,0-.56.41-.7.75-.24.57-.47,1.14-.71,1.71-.17.41-.45.23-.75.04l-.76-.47-1.69-1.05c-.41-.26-.79.39-.38.65h0Z"/><path class="cls-35" d="M747.45,298.24c1.99-.07,3.93-.65,5.63-1.68.41-.25.04-.9-.38-.65-1.59.96-3.4,1.51-5.25,1.58-.48.02-.48.77,0,.75h0Z"/><path class="cls-35" d="M738.57,310.14c1.24-.33,2.26-.94,3.25-1.73.61-.49,1.16-.43,1.88-.57.61-.12,1.17-.42,1.7-.73.57-.34,1.14-.72,1.79-.9.41-.11.81-.13,1.21,0,.26.08.49.22.76.26,1.31.17,1.39-1.35,2.11-2.01.36-.33-.17-.85-.53-.53-.41.37-.54.85-.82,1.32-.21.36-.46.54-.88.42-.29-.08-.54-.22-.84-.27-1.17-.18-2.22.5-3.18,1.07-.57.34-1.14.62-1.81.7-.52.06-1.02.08-1.47.37-.51.33-.93.77-1.45,1.08-.6.36-1.24.62-1.92.81-.47.13-.27.85.2.72h0Z"/><path class="cls-35" d="M754.74,302.81c1.28-.27,2.61-.56,3.73-1.27.62-.4,1.1-.96,1.7-1.4.63-.46,1.33-.82,2.01-1.21,2.83-1.61,5.75-3.06,8.75-4.35.44-.19.06-.84-.38-.65-2.9,1.25-5.73,2.65-8.48,4.21-1.24.7-2.32,1.41-3.4,2.33-1.16.99-2.65,1.31-4.11,1.62-.47.1-.27.82.2.72h0Z"/><path class="cls-35" d="M718.53,337.4c.57-.08,1.12-.24,1.64-.49.3-.14.55-.35.84-.5.39-.2.59-.04.95.13.92.44,1.95-.05,2.55-.78.35-.43.58-.94.82-1.44.17-.37.33-.63.74-.78.31-.12.62-.22.94-.33,1.4-.5,2.81-1,4.21-1.5.45-.16.26-.89-.2-.72-1.36.49-2.73.97-4.09,1.46-.54.19-1.19.32-1.66.66-.42.31-.58.86-.8,1.31-.29.58-.65,1.2-1.28,1.44-.71.27-.99-.21-1.6-.37-.53-.13-.9.26-1.31.52-.6.36-1.25.57-1.94.67-.48.07-.27.79.2.72h0Z"/><path class="cls-35" d="M735.3,329.46l1.64-4.83-.46.26c1.17.4,1.4,2.07,2.85,1.99,1.01-.06,1.78-.9,1.8-1.89l-.64.27c.63.8,1.68,1.68,2.65.87.49-.41.85-1.1,1.14-1.65.41-.77.56-1.79,1.17-2.39s1.84-.56,2.71-.75c.81-.18,1.6-.39,2.39-.65,1.6-.52,3.14-1.2,4.62-2,.42-.23.05-.88-.38-.65-2.62,1.43-5.45,2.41-8.39,2.87-1.17.18-1.7.31-2.07,1.49-.24.76-.54,1.48-.95,2.16-.32.53-.43.84-1.07.92-.68.09-.89-.24-1.28-.75-.21-.27-.63-.03-.64.27-.02.62-.54,1.14-1.16,1.11-.53-.02-.84-.42-1.15-.8-.41-.5-.76-.92-1.39-1.13-.2-.07-.4.08-.46.26-.55,1.61-1.09,3.22-1.64,4.83-.16.46.57.65.72.2h0Z"/><path class="cls-35" d="M759.27,317.52c.55-.34,1-.79,1.47-1.23.52-.5,1.1-.89,1.73-1.23,1.34-.72,2.71-1.39,4.07-2.09.43-.22.05-.87-.38-.65-1.36.69-2.72,1.37-4.07,2.09-.6.32-1.16.68-1.66,1.14s-.95.97-1.54,1.32c-.41.25-.04.9.38.65h0Z"/><path class="cls-35" d="M769.71,311.4c2.51-1.08,5.01-2.53,7-4.44.39-.38.76-.8.98-1.31.04-.09.22-1.25.27-1.27.08-.04,1.58,1.71,1.97,1.86.79.31,1.53.02,2.07-.59.39-.44.65-.99,1.05-1.42.47-.51,1.08-.88,1.69-1.2,2.97-1.59,6.04-3.01,9.05-4.51.43-.21.05-.86-.38-.65-2.8,1.39-5.6,2.77-8.4,4.17-1.01.51-2.01,1.04-2.73,1.93-.32.39-.53.92-.91,1.26-1.06.96-1.92-.23-2.47-1.05-.3-.44-.74-.99-1.32-.6-.24.16-.31.47-.37.73-.18.76-.22,1.24-.79,1.86-1.85,2.03-4.6,3.5-7.09,4.57-.44.19-.06.84.38.65h0Z"/><path class="cls-35" d="M721.67,346.49l.63-2.54c.1-.41.2-.81.3-1.22s.16-.85.61-.98c.72-.21,1.62.24,2.27.5.61.25,1.22.47,1.88.52,1.24.1,2.13-.54,2.57-1.67.22-.56.34-1.24.8-1.67.57-.53,1.47-.47,2.19-.44.48.02.48-.73,0-.75-1.4-.06-2.69.15-3.3,1.55-.26.61-.37,1.39-.88,1.86-.61.55-1.55.4-2.26.17-1.1-.36-2.95-1.5-4.04-.52-.55.49-.61,1.44-.78,2.1l-.72,2.87c-.12.47.61.67.72.2h0Z"/><path class="cls-35" d="M738.01,337.18c1.35-.24,2.65-.74,3.8-1.5.59-.39,1.14-1.02,1.81-1.24.73-.24,1.48.17,2.23.14,1.19-.05,1.73-1.06,2.54-1.76.58-.51,1.33-.82,2.01-1.17.81-.41,1.61-.82,2.42-1.23.43-.22.05-.87-.38-.65-1.36.69-2.86,1.3-4.11,2.16-.47.32-.83.74-1.22,1.16-.62.66-1.15.82-2.06.65-.56-.11-1.11-.2-1.67-.02-.59.2-1.05.67-1.54,1.03-1.19.88-2.57,1.44-4.03,1.7-.47.09-.27.81.2.72h0Z"/><path class="cls-35" d="M726.81,350.55c2.11-.45,4.2-1.06,6.2-1.9.75-.31,1.26-.94,1.99-1.29.69-.33,1.39-.63,1.79-1.33.24-.42-.41-.8-.65-.38-.36.64-1.13.85-1.75,1.17-.31.16-.58.35-.84.58-.37.34-.74.52-1.21.7-1.86.73-3.78,1.3-5.73,1.71-.47.1-.27.82.2.72h0Z"/><path class="cls-50" d="M178.46,481.04l45.71,91.43s7.81,5.14,8.38-4.19l-47.62-90.86-6.48-7.62s-3.81-3.43-2.86,1.33l2.86,9.9Z"/><path class="cls-34" d="M175.85,471.05v.05c.04-.19.06-.39.09-.58l-.03.05.65-.37h-.05c-.52.07-.8.43-.72.96.31,2.01,1.26,3.84,1.72,5.81.09.38.55.64.92.52.88-.28,1.74-.66,2.53-1.15.36-.23.77-.47,1.05-.79.43-.51.3-1.08-.1-1.55-1.27-1.46-2.5-2.94-3.74-4.42-.34-.41-.92-.2-1.18.15-.08.1-.23.21-.35.26-.41.16-.76.67-.45,1.1.59.82,1.18,1.64,1.77,2.46.54.75,1.03,1.6,1.84,2.08.35.21.82.08,1.03-.27.22-.37.06-.79-.27-1.03-.25-.18-.57-.21-.86-.14-.13.03-.25.09-.37.14-.02.01-.28.12-.16.07-.04.02-.09.03-.13.04.16-.05.3,0,.43.16.01-.09-.17-.33-.21-.41-.15-.29-.29-.58-.44-.87-.18-.36-.69-.46-1.03-.27-.37.22-.45.66-.27,1.03.16.33.33.66.49.98.18.35.37.7.78.82.27.08.55.06.81-.04.14-.05.28-.11.41-.18-.1.05.07.02-.02,0-.04,0-.33-.12-.19-.03l.76-1.3c-.27-.16-.48-.41-.67-.67-.26-.36-.52-.73-.79-1.09-.54-.75-1.08-1.5-1.61-2.24l-.45,1.1c.53-.21.91-.5,1.24-.95l-1.18.15c.63.76,1.26,1.52,1.89,2.27.32.38.63.76.95,1.13.17.2.34.39.5.58.14.16.33.33.42.5l-.1-.38c.14-.2.15-.24.03-.12-.04.03-.08.06-.12.08-.13.09-.26.18-.39.26-.23.15-.47.29-.71.42-.5.27-1.02.48-1.56.65l.92.52c-.46-1.97-1.42-3.8-1.72-5.81l-.72.95c.54-.06.96-.47.79-1.06-.26-.93-1.71-.53-1.45.4h0Z"/><path class="cls-34" d="M223.23,569.11l2.06-.66c.68-.22,1.41-.41,2-.82.54-.38,1.03-.86,1.5-1.33s.92-1.02,1.28-1.6c.5-.83-.79-1.58-1.3-.76-.29.48-.65.9-1.05,1.3s-.82.85-1.29,1.16c-.5.33-1.11.47-1.67.65l-1.94.63c-.39.12-.63.52-.52.92.1.38.54.65.92.52h0Z"/></g><g id="Layer_11"><rect class="cls-35" x="659.49" y="579.21" width="93.12" height="93.12" rx="18.5" ry="18.5" transform="translate(-129.32 187.31) rotate(-13.86)"/><path class="cls-30" d="M693.08,621.42l-13.27,19.64s-.54,1.12.23,2.09l5.73,3s1.74.21,2.13-.53,29.93-37.28,29.93-37.28l-3.55-14.39-2.3-.13-18.91,27.6Z"/><path class="cls-21" d="M686.71,630.17l-11.61-6.35s-.9-.82-.45-1.81l3.56-5.29s1.2-.82,2.18-.13l44.6,18.9,3.53,12.89-2.31,2.89-39.52-21.1Z"/><path class="cls-5" d="M711.5,594.41s1.44-1.4,3.57-.42l13.47,2.83s1.25.2,1.54,1.71,9.92,39.9,9.92,39.9c0,0,.45,1.67-.97,2.64l-11.15,9.56s-1.41.89-2.9.17c0,0,2.57-.4,2.44-1.88l-13.04-53.02s-.73-2.18-2.88-1.49Z"/></g><g id="Layer_10"><polygon class="cls-53" points="231 1001.62 300.59 1023.16 273.86 1087.63 242.97 1086.27 216.63 1070.3 231 1001.62"/><polygon class="cls-49" points="239.64 1019.52 282.99 1032.94 279.94 1041.1 246.45 1030.73 244.69 1038.52 276.79 1049.16 267.06 1073.03 247.27 1072.37 230.85 1062.21 233.44 1049.22 242.43 1052.13 240.79 1058.26 249.59 1064.11 260.5 1064.36 264.54 1054.68 234.06 1045.12 239.64 1019.52"/></g><g id="Layer_16"><rect class="cls-15" x="873.6" y="404.19" width="78.77" height="77.03" rx="14.07" ry="14.07" transform="translate(204.32 -283.46) rotate(19.83)"/><path class="cls-20" d="M899.95,418.26l-11.69,32.41,6.62,2.39,3.78-10.48s15.53,8.51,20.82-5.35c5.29-13.86-15.35-17.67-19.54-18.96ZM901,436.7l3.58-9.93c1.37.64,10.01,1.87,7.73,8.4-2.28,6.53-11.31,1.53-11.31,1.53Z"/><path class="cls-20" d="M924.66,435.97l6.43,2.32-1.07,2.96s5.93-2.95,9.87-.37l-2.41,6.69s-6.64-2.76-8.85-.43l-5.71,16.03-7.14-2.57,8.88-24.63Z"/></g><g id="Layer_17"><rect class="cls-11" x="73.32" y="539.88" width="76.11" height="76.11" rx="14.79" ry="14.79" transform="translate(80.4 -9.82) rotate(7.89)"/><path class="cls-35" d="M129.82,554.45l-3.56,9.37-21.83-3.02-2.97,7.95,35.87,5.33-2.42,6.22-21.62,15.88s4.77,3.31,17.97.93l-2.67,7.57s-5.69,3.78-18.5-.58c0,0-4.79-1.99-8.77-.21l-2.85-6.65,22.6-17.03-22.73-3.15-7.16,19.85-9.6-1.29,16.36-45.57,31.87,4.42Z"/></g><g id="Layer_12"><polygon class="cls-25" points="880.14 736.91 951.4 719.34 960.55 783.56 933.14 798.62 901.59 798.37 880.14 736.91"/><polygon class="cls-54" points="895.9 744.92 898.68 752.94 932.85 744.5 934.25 752.86 901.71 760.88 904.22 768.36 935.5 760.65 937.21 771.39 927.63 776.3 916.84 776.68 914.75 770.2 905.83 772.34 909.91 784.77 929.69 784.65 947.02 775.67 941.09 733.78 895.9 744.92"/></g><g id="Layer_14"><polygon class="cls-28" points="270.17 578.48 316.23 537.93 350.18 584.99 336.03 606.86 312.37 618.27 270.17 578.48"/><polygon class="cls-54" points="315.71 568.37 321.52 563.25 310.31 552.97 287.22 573.29 302.68 594.76 322.45 577.37 327.49 584.43 322.51 591.95 314.84 595.96 310.6 591.92 304.83 597.2 313.38 604.9 327.9 597.62 336.86 584.14 324.05 566.13 304.09 583.3 297.83 574.18 310.16 563.62 315.71 568.37"/></g><g id="Layer_8"><rect class="cls-2" x="283.18" y="225.28" width="89.72" height="89.72" rx="16.16" ry="16.16" transform="translate(-55.15 86.43) rotate(-13.86)"/><circle class="cls-9" cx="338.71" cy="267.68" r="10.16"/><path class="cls-14" d="M323.65,237.65h10c5.69,0,10.31,4.62,10.31,10.31h0c0,5.52-4.48,10-10,10h-10.31v-20.31h0Z" transform="translate(-49.63 87.16) rotate(-13.86)"/><path class="cls-8" d="M308.79,262.39h10.48c5.43,0,9.83,4.41,9.83,9.83h0c0,5.59-4.54,10.13-10.13,10.13h-10.18v-19.97h0Z" transform="translate(693.84 460.44) rotate(166.14)"/><path class="cls-10" d="M303.93,242.52h10.31c5.52,0,10,4.48,10,10h0c0,5.69-4.62,10.31-10.31,10.31h-10v-20.31h0Z" transform="translate(679.54 422.77) rotate(166.14)"/><path class="cls-13" d="M323.96,281.92h0c5.52,0,10,4.48,10,10h0c0,5.69-4.62,10.31-10.31,10.31h-10v-10c0-5.69,4.62-10.31,10.31-10.31Z" transform="translate(708.13 498.11) rotate(166.14)"/></g><g id="Layer_7"><rect class="cls-15" x="724.74" y="940.98" width="87" height="85.75" rx="15.85" ry="15.85" transform="translate(142.35 -96.15) rotate(7.89)"/><path class="cls-20" d="M760.77,961.99l-9.91-1.37-17.55,35.76,7.56,1.05,4.77-8.15,12.77,1.77,1.81,9.07,8.63,1.2-8.09-39.32ZM748.3,982.09l6.57-13.99,2.42,15.24-8.99-1.25Z"/><path class="cls-20" d="M797.33,980.29c-1.78-3.34-7.34-7.85-15.73-5.4-9.41,2.75-9.38,14.56-9.38,14.56,0,0-.75,10.29,7.42,13.73,8.16,3.44,14.62,1.19,14.62,1.19l.77-6.66s-14.07,3.51-14.68-6.76l17.67,2.45s1.36-9.26-.68-13.11ZM792.06,986.74l-10.52-1.46s.68-6.04,6.27-4.69c5.59,1.35,4.25,6.15,4.25,6.15Z"/></g><g id="Layer_5"><rect class="cls-12" x="202.82" y="704.56" width="97.46" height="91.73" rx="13.9" ry="13.9" transform="translate(-172.4 82.09) rotate(-13.86)"/><path class="cls-19" d="M242.52,729.27l-10.16,2.51-3.78,45.4,8.64-2.13.86-10.42,14.91-3.77,5.72,8.89,9.27-2.29-25.45-38.19ZM238.29,755.03l1.11-16.4,8.52,14.03-9.63,2.37Z"/><rect class="cls-19" x="268" y="733.36" width="8.8" height="32.52" transform="translate(-171.6 87.06) rotate(-13.86)"/><circle class="cls-19" cx="266.78" cy="724.93" r="5.59"/></g></svg>