<?xml version="1.0" encoding="UTF-8"?><svg xmlns="http://www.w3.org/2000/svg" width="318.86" height="291.81" viewBox="0 0 318.86 291.81"><defs><style>.cls-1{fill:#1e1e1e;}.cls-1,.cls-2,.cls-3,.cls-4,.cls-5,.cls-6,.cls-7,.cls-8,.cls-9,.cls-10,.cls-11,.cls-12,.cls-13,.cls-14,.cls-15,.cls-16,.cls-17{stroke-width:0px;}.cls-2{fill:#3c99d6;}.cls-3{fill:#a259ff;}.cls-18{fill:#fcd2c3;}.cls-18,.cls-19{stroke:#ff855c;}.cls-18,.cls-19,.cls-20,.cls-21{stroke-miterlimit:10;}.cls-4{fill:#1abcfe;}.cls-5{fill:#f24e1e;}.cls-6{fill:#bf0000;}.cls-7{fill:#300;}.cls-8{fill:#0acf83;}.cls-9{fill:#ff7262;}.cls-10{fill:#00005b;}.cls-19{fill:#ff855c;}.cls-11{fill:#ff9a00;}.cls-12{fill:#99f;}.cls-13{fill:#2389cb;}.cls-14{fill:#264de4;}.cls-15{fill:#e4a126;}.cls-16{fill:#0878ba;}.cls-22{stroke-linecap:round;stroke-linejoin:round;stroke-width:2px;}.cls-22,.cls-17,.cls-21{fill:#fff;}.cls-22,.cls-21{stroke:#fff;}.cls-20{fill:#e44d26;stroke:#e44d26;}</style></defs><g id="Layer_8"><rect class="cls-1" x="252.72" y="214.42" width="51.12" height="51.12" rx="9.21" ry="9.21"/><circle class="cls-4" cx="284.52" cy="240.08" r="5.79"/><path class="cls-9" d="M278.75,222.63h5.7c3.24,0,5.88,2.63,5.88,5.88h0c0,3.15-2.55,5.7-5.7,5.7h-5.88v-11.57h0Z"/><path class="cls-3" d="M267.16,234.28h5.97c3.09,0,5.6,2.51,5.6,5.6h0c0,3.19-2.59,5.77-5.77,5.77h-5.8v-11.38h0Z" transform="translate(545.67 480.2) rotate(-179.95)"/><path class="cls-5" d="M267.17,222.62h5.88c3.15,0,5.7,2.55,5.7,5.7h0c0,3.24-2.63,5.88-5.88,5.88h-5.7v-11.57h0Z" transform="translate(545.7 457.07) rotate(-179.95)"/><path class="cls-8" d="M273.02,245.75h0c3.15,0,5.7,2.55,5.7,5.7h0c0,3.24-2.63,5.88-5.88,5.88h-5.7v-5.7c0-3.24,2.63-5.88,5.88-5.88Z" transform="translate(545.64 503.33) rotate(-179.95)"/><rect class="cls-18" x="13.78" y="66.32" width="46.29" height="10.86" rx="2.33" ry="2.33"/><path class="cls-19" d="M15.63,66.32h27.26v10.86H15.63c-1.02,0-1.85-.83-1.85-1.85v-7.16c0-1.02.83-1.85,1.85-1.85Z"/><rect class="cls-18" x="136.63" y="65.37" width="46.29" height="10.86" rx="2.33" ry="2.33"/><path class="cls-19" d="M138.67,65.37h33.35v10.86h-33.35c-1.13,0-2.04-.91-2.04-2.04v-6.78c0-1.13.91-2.04,2.04-2.04Z"/><rect class="cls-18" x="255.14" y="66.32" width="46.29" height="10.86" rx="2.33" ry="2.33"/><path class="cls-19" d="M257.48,66.32h40.84c1.72,0,3.11,1.39,3.11,3.11v5.08c0,1.47-1.19,2.67-2.67,2.67h-41.29c-1.29,0-2.33-1.05-2.33-2.33v-6.19c0-1.29,1.05-2.33,2.33-2.33Z"/><rect class="cls-18" x="13.78" y="164.35" width="46.29" height="10.86" rx="2.33" ry="2.33"/><path class="cls-19" d="M15.41,164.35h42c1.29,0,2.33,1.04,2.33,2.33v5.37c0,1.74-1.41,3.15-3.15,3.15H15.41c-.9,0-1.63-.73-1.63-1.63v-7.6c0-.9.73-1.63,1.63-1.63Z"/><rect class="cls-18" x="134.09" y="164.35" width="46.29" height="10.86" rx="2.33" ry="2.33"/><path class="cls-19" d="M136.08,164.35h31.72v10.86h-31.72c-1.1,0-1.99-.89-1.99-1.99v-6.87c0-1.1.89-1.99,1.99-1.99Z"/><rect class="cls-18" x="255.14" y="164.35" width="46.29" height="10.86" rx="2.33" ry="2.33"/><path class="cls-19" d="M257.48,164.35h41.41c1.4,0,2.54,1.14,2.54,2.54v5.14c0,1.75-1.42,3.17-3.17,3.17h-40.78c-1.29,0-2.33-1.05-2.33-2.33v-6.19c0-1.29,1.05-2.33,2.33-2.33Z"/><rect class="cls-18" x="14.1" y="269.49" width="46.29" height="10.86" rx="2.33" ry="2.33"/><path class="cls-19" d="M16.29,269.49h38.4v10.86H16.29c-1.21,0-2.19-.98-2.19-2.19v-6.49c0-1.21.98-2.19,2.19-2.19Z"/><rect class="cls-18" x="133.45" y="269.49" width="46.29" height="10.86" rx="2.33" ry="2.33"/><path class="cls-19" d="M135.76,269.49h40.36c1.68,0,3.04,1.36,3.04,3.04v4.9c0,1.61-1.31,2.91-2.91,2.91h-40.49c-1.28,0-2.32-1.04-2.32-2.32v-6.22c0-1.28,1.04-2.32,2.32-2.32Z"/><rect class="cls-18" x="255.46" y="269.49" width="46.29" height="10.86" rx="2.33" ry="2.33"/><path class="cls-19" d="M257.65,269.49h38.89v10.86h-38.89c-1.21,0-2.2-.99-2.2-2.2v-6.46c0-1.21.99-2.2,2.2-2.2Z"/></g><g id="Layer_11"><rect class="cls-17" x="11.15" y="214.51" width="51.15" height="51.15" rx="10.16" ry="10.16"/><path class="cls-16" d="M30.39,236.05l-9.66,8.73s-.43.53-.15,1.15l2.66,2.35s.9.34,1.21,0,20.87-15.95,20.87-15.95v-8.14s-1.21-.37-1.21-.37l-13.72,12.23Z"/><path class="cls-13" d="M25.83,239.88l-5.36-4.91s-.37-.56,0-1.02l2.6-2.35s.75-.28,1.18.22l21.3,15.95.19,7.34-1.61,1.24-18.3-16.45Z"/><path class="cls-2" d="M43.76,224.07s.95-.56,1.96.25l6.81,3.28s.64.27.6,1.11.04,22.58.04,22.58c0,0,.02.95-.87,1.28l-7.2,3.63s-.87.29-1.57-.29c0,0,1.42.12,1.55-.68l.02-29.99s-.1-1.26-1.34-1.18Z"/></g><g id="Layer_10"><polygon class="cls-20" points="255.41 112.57 301.17 112.57 297.11 156.22 278.31 161.15 259.54 156.46 255.41 112.57"/><polygon class="cls-22" points="263.92 121.71 292.42 121.71 292.11 127.17 270.09 127.17 270.48 132.17 291.72 132.59 290.31 148.73 278.31 152 266.57 148.96 265.71 140.68 271.65 140.76 271.8 144.74 278.17 146.62 284.77 144.74 285.39 138.18 265.32 138.11 263.92 121.71"/></g><g id="Layer_16"><rect class="cls-10" x="11.69" y="12.67" width="51.12" height="50" rx="9.13" ry="9.13"/><path class="cls-12" d="M23.9,25.61v22.36s4.57,0,4.57,0v-7.23s11.36,1.77,11.53-7.85c.18-9.63-13.26-7.41-16.1-7.28ZM28.61,36.63v-6.85c.98.09,6.52-1.06,6.57,3.43.04,4.49-6.57,3.43-6.57,3.43Z"/><path class="cls-12" d="M42.89,30.98h4.44s0,2.04,0,2.04c0,0,2.97-3.11,5.94-2.4v4.61s-4.66-.22-5.5,1.69l.04,11.05h-4.92s0-16.99,0-16.99Z"/></g><g id="Layer_17"><rect class="cls-6" x="131.17" y="214.02" width="52.12" height="52.12" rx="10.13" ry="10.13"/><path class="cls-17" d="M167.54,222.41l-1.54,6.69h-15.09s-1.26,5.67-1.26,5.67l24.84.24-1.06,4.45-13.17,12.81s3.55,1.79,12.28-1.06l-1.1,5.38s-3.51,3.1-12.6,1.35c0,0-3.44-.9-5.97.68l-2.56-4.24,13.73-13.68h-15.72s-2.99,14.14-2.99,14.14l-6.63.03,6.81-32.45h22.04Z"/></g><g id="Layer_12"><polygon class="cls-14" points="12.94 113.3 60.57 113.3 56.36 155.19 36.74 160.42 16.9 155.36 12.94 113.3"/><polygon class="cls-21" points="21.62 120.8 22.13 126.28 44.98 126.28 44.56 131.76 22.8 131.76 23.23 136.86 44.13 136.86 43.54 143.9 36.74 145.5 29.89 144.07 29.58 139.65 23.62 139.62 24.26 148.08 36.74 151.08 49.06 148.12 51.83 120.8 21.62 120.8"/></g><g id="Layer_14"><polygon class="cls-15" points="133.76 112.07 180.7 112.07 176.42 156.25 157.23 161.65 137.88 156.25 133.76 112.07"/><polygon class="cls-21" points="165.02 129.28 170.94 129.28 169.7 117.71 146.18 117.71 144.2 137.85 164.34 137.85 163.67 144.45 157.01 146.26 150.58 144.68 150.18 140.22 144.2 140.34 145.22 149.08 157.23 152.24 169.19 149.02 170.94 132.21 150.8 131.99 151.82 123.58 164.23 123.75 165.02 129.28"/></g><g id="Layer_7"><rect class="cls-10" x="134.41" y="12.03" width="50.72" height="50" rx="9.24" ry="9.24"/><path class="cls-12" d="M153.71,25h-5.83s-7.28,22.06-7.28,22.06h4.45s2.1-5.09,2.1-5.09h7.52s1.77,5.09,1.77,5.09h5.08s-7.82-22.06-7.82-22.06ZM148.12,37.61l2.68-8.61,2.62,8.61h-5.29Z"/><path class="cls-12" d="M176.29,32.64c-1.29-1.79-4.87-3.94-9.52-1.86-5.22,2.34-4.25,9.16-4.25,9.16,0,0,.39,6,5.38,7.33,4.99,1.33,8.54-.48,8.54-.48l-.09-3.91s-7.85,3.15-9.02-2.73h10.4s.05-5.45-1.44-7.51ZM173.77,36.79h-6.19s-.09-3.55,3.25-3.21c3.34.33,2.95,3.21,2.95,3.21Z"/></g><g id="Layer_5"><rect class="cls-7" x="251.72" y="12.64" width="53.12" height="50" rx="7.58" ry="7.58"/><path class="cls-11" d="M276.27,25.26h-5.71s-7.93,23.53-7.93,23.53h4.85s1.82-5.4,1.82-5.4l8.38-.05,1.87,5.45h5.2s-8.48-23.53-8.48-23.53ZM270.66,38.34l2.73-8.53,2.68,8.53h-5.4Z"/><rect class="cls-11" x="287.03" y="31.07" width="4.8" height="17.73"/><circle class="cls-11" cx="289.67" cy="26.14" r="3.05"/></g></svg>